<?xml version="1.0" standalone="no"?>
<!DOCTYPE svg PUBLIC "-//W3C//DTD SVG 1.1//EN" "http://www.w3.org/Graphics/SVG/1.1/DTD/svg11.dtd" >
<svg>
<metadata>
Created by FontForge 20110222 at Mon Mar  7 13:32:31 2011
 By www-data
Copyright (c) 2010 by Nate Piekos. Blambot.com. All rights reserved.
</metadata>
<defs>
<font id="ToneDeafBB" horiz-adv-x="589" >
  <font-face 
    font-family="ToneDeaf BB"
    font-weight="400"
    font-stretch="normal"
    units-per-em="1000"
    panose-1="2 0 5 6 0 0 0 2 0 4"
    ascent="750"
    descent="-250"
    x-height="410"
    cap-height="447.5"
    bbox="15.9167 -214.8 589.923 666.615"
    underline-thickness="50"
    underline-position="-50"
    unicode-range="U+0020-2122"
  />
    <missing-glyph />
    <glyph glyph-name="space" unicode=" " horiz-adv-x="496" 
 />
    <glyph glyph-name="space" unicode="&#xa0;" horiz-adv-x="496" 
 />
    <glyph glyph-name="e" unicode="e" horiz-adv-x="189" 
d="M69 191q5 1 10 -1.5t10.5 -5t10 -2t7.5 6.5q7 12 6 29t-2 30q-1 29 -8 55.5t-5 55.5q0 10 6 22t18 6q4 -2 6 -7.5t2.5 -12t0.5 -13.5t1 -11q4 -32 9 -63.5t9 -63.5q2 -13 3.5 -33.5t2.5 -33.5q1 -21 -10 -39t-28 -28.5t-37 -11t-36 13.5q-11 9 -18 25t-6 32.5t11.5 30.5
t36.5 19z" />
    <glyph glyph-name="k" unicode="k" horiz-adv-x="528" 
d="M37 66q-3 36 -7 68t-2 68q1 18 5 34t11.5 28.5t20.5 20.5t34 10q17 1 29.5 -6.5t18.5 -20.5t5 -29t-11 -31q-7 -11 -12.5 -13.5t-11.5 -2t-12.5 1.5t-14.5 -3q-14 -7 -18.5 -26t-5.5 -34q0 -12 1 -30.5t4 -36.5t9.5 -31.5t18.5 -14.5t32 0.5t39.5 7.5t34 16t14.5 26
q1 32 -1 68t-3 69t-3.5 68t-4.5 67q-1 13 -4 29.5t-5 33.5t-1 32.5t8 26.5q16 25 37.5 30.5t41 -1t35 -22.5t20.5 -32.5t-3.5 -31t-35.5 -19.5q-9 -2 -16 -3t-12 -4t-8.5 -8.5t-5.5 -16.5q-3 -16 -1.5 -34.5t0.5 -35.5q-2 -21 -3.5 -44t3.5 -43q3 -15 12 -20t21 -4.5t26 5
t27 10.5q20 8 24.5 24.5t2.5 36t-6 41t-1 39.5t16.5 31.5t46.5 17.5q17 2 33 -3t28 -15t17 -25t-1 -32q-5 -17 -14.5 -26.5t-29.5 -10.5q-13 -1 -21.5 1.5t-14 2.5t-8.5 -5t-6 -21q-5 -32 -4.5 -66.5t2.5 -66.5q0 -7 2.5 -15.5t4.5 -16.5t3.5 -15.5t-0.5 -12.5
q-6 -14 -31.5 -22.5t-57 -15t-61 -11.5t-42.5 -10q-11 -4 -33.5 -11t-47 -13t-47.5 -9.5t-35 -0.5q-16 4 -21.5 16.5t-6 29t1.5 33.5t1 29zM271 127q-9 -9 -8 -22.5t3 -24.5q1 -7 2 -13t3.5 -10.5t7 -7t12.5 -1.5q11 1 25.5 4.5t25.5 8.5q11 4 15.5 9t5.5 16q0 6 1 14.5
t1 17t-1.5 16.5t-5.5 12q-7 5 -19 1.5t-20 -5.5q-11 -3 -25 -5t-23 -10z" />
    <glyph glyph-name="h" unicode="h" horiz-adv-x="567" 
d="M518 286q-1 -9 0.5 -19.5t2 -21.5t0.5 -21t-4 -18q-9 -18 -25.5 -29t-34 -13t-32.5 7.5t-19 32.5q-3 15 1.5 24.5t13.5 15.5t20 10.5t21 9.5q18 10 20 30.5t-3 36.5q-3 9 -11 11t-18 0.5t-20.5 -4.5t-19.5 -5q-8 -2 -17.5 -4.5t-18.5 -6t-16.5 -9t-10.5 -14.5
q-7 -20 -6 -43t1 -42v-39.5t-6 -40t-19.5 -31.5t-40.5 -14q-25 -1 -37.5 15t-13 36t12 36.5t37.5 15.5q8 0 14 -3.5t13 4.5q5 6 5 15t1 16q0 14 3 33t-1 33q-3 12 -13.5 15t-23.5 2t-26 -4.5t-22 -6.5q-12 -3 -23.5 -6t-20.5 -8.5t-14.5 -14t-5.5 -23.5q-1 -21 0 -42l2 -42
q0 -18 -0.5 -38t-6.5 -37.5t-20 -28.5t-41 -10q-20 0 -33.5 9.5t-18 23t0.5 29.5t23 30q8 7 17.5 9.5t18 4.5t15 6.5t9.5 16.5q5 20 2.5 39.5t-2.5 38.5q-1 15 -3.5 30.5t-8.5 29.5q-5 11 -12.5 21t-10.5 24q-1 4 -2 13t-1 19t1 19t4 13q7 8 20.5 8.5t22.5 2.5q29 8 59 11
t59 11q26 8 54.5 14.5t55.5 9.5q24 4 48.5 8t47.5 10q7 2 18.5 5t22.5 4.5t20.5 -1t12.5 -12.5q1 -4 0.5 -12t-2 -17t-3.5 -17.5t-2 -12.5q-2 -11 -3 -22t-3 -22q-2 -23 -2 -52t-2 -52zM287 358q7 5 8.5 16t-0.5 19q-2 13 -5.5 13.5t-15.5 -0.5q-20 -2 -38 -6.5t-37 -7.5
q-18 -4 -33.5 -16.5t-11.5 -34.5q2 -11 9 -13t16 0t18.5 6t16.5 6q8 2 18 2.5t19.5 2t19 4.5t16.5 9zM464 391q7 5 11.5 14t5 18t-3 16t-12.5 8q-17 2 -39 -5.5t-39 -10.5q-14 -3 -29.5 -7.5t-20.5 -20.5q-4 -12 2.5 -22.5t17.5 -13.5q9 -3 23.5 -1.5t30 5.5t30 9.5
t23.5 10.5z" />
    <glyph glyph-name="w" unicode="w" horiz-adv-x="566" 
d="M49 264q1 18 -2.5 41t4.5 39q9 18 25.5 29t33.5 13t31.5 -7.5t19.5 -32.5q3 -15 -1.5 -24.5t-13.5 -15.5t-20 -10.5t-21 -9.5q-18 -10 -20 -30.5t3 -36.5q3 -9 11.5 -11t18.5 -0.5t20.5 4.5t18.5 5q16 4 36.5 10.5t26.5 23.5q7 20 6.5 43t-1.5 42v39.5t6 40t19.5 31.5
t40.5 14q25 1 37.5 -15t13 -36t-12 -36.5t-37.5 -15.5q-8 0 -14 3.5t-13 -4.5q-5 -6 -5 -15v-16q-1 -14 -4 -33t1 -33q3 -12 13.5 -15.5t23.5 -2t26 5t22 6.5q12 3 23.5 6t20.5 8.5t14.5 14t5.5 23.5q1 21 0 42l-2 42q0 18 0.5 38t6.5 37.5t20 28.5t41 10q20 0 33.5 -9.5
t18 -23t-0.5 -29.5t-23 -30q-8 -7 -17.5 -9.5t-18 -4.5t-15 -6.5t-9.5 -16.5q-5 -20 -2.5 -39.5t3.5 -38.5q0 -15 2.5 -30.5t8.5 -29.5q5 -11 12.5 -21t10.5 -24q1 -4 1.5 -13t0 -18.5t-2.5 -18t-5 -12.5q-7 -8 -20.5 -8.5t-22.5 -2.5q-29 -8 -59 -11t-59 -11
q-26 -8 -54.5 -14.5t-55.5 -9.5q-24 -4 -48.5 -8t-47.5 -10q-8 -2 -19 -5t-22 -4.5t-20.5 1t-12.5 12.5q-1 4 0.5 11.5t3.5 16t4.5 16.5t2.5 13q2 11 3 22t3 22q2 23 2 52t2 52zM280 192q-7 -5 -8.5 -16t0.5 -19q2 -13 6 -13.5t15 0.5q20 2 38 6.5t37 7.5q19 4 34 16.5
t11 34.5q-2 10 -9 12.5t-16 0.5t-18.5 -6t-16.5 -6q-8 -2 -18 -2.5t-19.5 -2t-19 -4.5t-16.5 -9zM103 159q-7 -5 -11.5 -14t-5 -18t3 -16t12.5 -8q17 -2 39 5.5t39 10.5q14 3 29.5 7t20.5 21q4 12 -2.5 22.5t-17.5 13.5q-9 3 -23.5 1.5t-30 -5.5t-30 -9.5t-23.5 -10.5z" />
    <glyph glyph-name="p" unicode="p" horiz-adv-x="399" 
d="M40 315q-2 17 -4 34.5t-1 34.5q1 14 3 28t9 26q6 12 13.5 21t21.5 14q11 4 26 5t26 -7q10 -6 15.5 -16.5t7 -22.5t-1.5 -23.5t-11 -20.5q-8 -10 -20.5 -13t-23.5 -2q-13 1 -16 -5t-4 -17q-1 -8 -1.5 -18t5.5 -16q6 -7 16 -9t18 -1q31 1 58.5 12.5t55.5 21.5q8 2 18 6.5
t15 11.5q6 8 5 17.5t-3 17.5q-4 12 -5.5 24.5t-5.5 24.5q-2 10 -5.5 19.5t-2.5 19.5q1 14 11.5 25t24.5 17t29.5 7.5t27.5 -3.5q16 -7 23.5 -17t9.5 -28q2 -12 -0.5 -22.5t-12.5 -19.5q-11 -11 -28 -11q-4 1 -7 1.5t-7 0.5q-12 -1 -16.5 -11.5t-4.5 -24t2.5 -27t2.5 -20.5
q0 -14 3 -27q4 -15 6.5 -31t7.5 -31q3 -9 8 -18t8 -18t2.5 -17.5t-6.5 -17.5q-8 -10 -20 -12t-23 -4q-19 -4 -37 -9.5t-35 -11.5q-20 -8 -41 -15.5t-41 -14.5q-11 -4 -21.5 -8.5t-21.5 -5.5q-14 -2 -21 5t-9.5 17.5t-3 22.5t-0.5 21q-1 17 -1 33.5t-2 33.5q-3 19 -7.5 37
t-7.5 37zM116 232q-12 -4 -15.5 -7.5t-1.5 -11.5q0 -4 -0.5 -11t4.5 -9q5 -4 18 0.5t19 6.5q17 5 34.5 9.5t34.5 8.5q9 2 17.5 5t16.5 6q9 2 18 4.5t17 5.5q10 5 7.5 9.5t-5.5 9.5q-2 5 -4 11.5t-7 9.5q-5 2 -10.5 0.5t-11.5 -3.5q-9 -3 -17.5 -6.5t-17.5 -6.5
q-25 -8 -49 -15.5t-47 -15.5z" />
    <glyph glyph-name="z" unicode="z" horiz-adv-x="334" 
d="M312 318q2 -14 -3.5 -20t-21.5 -11q-9 -3 -18.5 -4.5t-17 -4.5t-12 -8t-3.5 -15q0 -12 2 -24.5t4 -24.5q1 -11 1.5 -24t-4.5 -24q-3 -8 -11 -12q-2 -1 -10 -1t-10 2q-4 3 -4.5 11t0.5 18.5t2 21.5t1 20v18t-5 18q-7 11 -19 6t-23 -10q-19 -8 -21 -18.5t0 -26.5l2.5 -12.5
t2.5 -16t0 -16t-5 -10.5q-6 -5 -15 -2.5t-12 7.5q-5 5 -3.5 13t2.5 14q0 5 0.5 13t0 16t-2.5 14.5t-6 9.5q-13 -5 -29 -10.5t-30 -7.5q-6 -1 -8.5 3.5t-4.5 8.5t-2 10v10q1 12 7.5 16.5t18.5 9.5q10 3 22 8t16 13q3 5 4.5 18t-4.5 16q-3 2 -9.5 0t-13.5 -5t-13.5 -6.5
t-9.5 -4.5q-17 -5 -19 3t-4 20q-2 17 3 21t22 9q10 3 21.5 7t16.5 12t3.5 20.5t-1.5 21.5q0 14 1 28t-2 27q-2 7 -3 12.5t12 8.5q8 2 14 -1t8 -9q5 -13 3.5 -29.5t-1.5 -29.5q0 -5 -1.5 -13t-1 -15t4 -10t13.5 1t25.5 12t22.5 16q11 10 8.5 25.5t-3.5 27.5q0 5 -1.5 13
t-1.5 16.5t2 15.5t8 10q8 5 13.5 2.5t8.5 -8.5t4 -13.5t1 -11.5q-1 -11 -0.5 -21t1.5 -21q0 -6 -1.5 -19t4.5 -17q5 -3 11.5 -1t13.5 5l14 6t13 3t10.5 -5t7 -11.5t2 -14t-3.5 -11.5q-7 -10 -23 -14t-27 -9q-8 -5 -10 -7.5t-2 -11.5v-14.5t3 -12.5q3 -3 9.5 -1.5t14 4
t14 5.5t9.5 4q19 5 23 -1t6 -20zM162 306q7 2 15 4t14 5.5t9.5 9.5t0.5 16q-2 8 -5.5 14t-11.5 7q-10 0 -20.5 -4t-19.5 -9q-11 -5 -13 -12.5t0 -19.5q2 -14 11 -13.5t20 2.5z" />
    <glyph glyph-name="s" unicode="s" horiz-adv-x="220" 
d="M152 332q15 -5 26 -15t17 -23.5t5.5 -28.5t-9.5 -30q-10 -17 -24.5 -28t-31.5 -18q-9 -4 -17.5 -5.5t-18.5 -3.5q-12 -2 -15 -6.5t-5 -17.5q-6 -36 -4 -73t5 -73q1 -6 0 -17.5t-4 -21.5t-9.5 -15t-16.5 1q-8 5 -11 15.5t-2.5 22t2 22.5t2.5 18q2 27 -0.5 55.5t-4.5 54.5
q-2 23 -4 44.5t-4 43.5q-2 26 11.5 48t33.5 36l-9 6q-11 9 -18 25t-6 32.5t11.5 31t36.5 19.5q5 1 10.5 -2t10.5 -5t9.5 -2t7.5 6q7 12 6 29.5t-1 30.5q-1 28 -8 55t-6 56q0 5 2 11t5 10.5t7.5 6.5t10.5 -1q4 -2 6 -7.5t2.5 -12t0.5 -13v-10.5q4 -32 9 -64t9 -64
q2 -13 4 -33t3 -33q1 -17 -6 -31.5t-18 -25.5zM145 252q10 18 2.5 27t-21.5 9t-28 -8.5t-16 -25.5q-3 -17 5 -22.5t19.5 -3.5t22.5 9t16 15z" />
    <glyph glyph-name="l" unicode="l" horiz-adv-x="235" 
d="M145 467q19 0 34.5 -9.5t24.5 -24t10 -32.5t-9 -35q-19 -30 -55 -46q-10 -4 -18.5 -5.5t-17.5 -3.5q-13 -2 -16 -6t-5 -18q-5 -36 -3.5 -72.5t5.5 -73.5q0 -6 -0.5 -17t-3.5 -21t-9.5 -15.5t-17.5 1.5q-8 5 -11 15t-2.5 21.5t2 22.5t2.5 19q2 27 -0.5 55t-4.5 55l-4 44
t-3 44q-1 20 7.5 38.5t23 33t33 22.5t38.5 8zM159 383q10 19 2.5 28t-21 9t-27.5 -9t-17 -26t5 -22.5t19.5 -3.5t23 9t15.5 15z" />
    <glyph glyph-name="u" unicode="u" horiz-adv-x="236" 
d="M91 30q-19 0 -35 9.5t-25 24t-10 32.5t10 36q19 30 55 46q10 4 18 5.5t18 3.5q13 2 16 6t5 17q5 37 3.5 73.5t-5.5 73.5q0 6 0.5 17t3.5 21t9.5 15t17.5 -1q8 -5 10.5 -15t2.5 -21.5t-2 -23t-2 -18.5q-2 -27 0 -55t4 -55q2 -22 4.5 -44t3.5 -44q1 -20 -7.5 -39t-23 -33
t-33.5 -22.5t-38 -8.5zM77 114q-10 -18 -2.5 -27t21 -9t27.5 8.5t17 25.5t-5 22.5t-19.5 3.5t-23 -9t-15.5 -15z" />
    <glyph glyph-name="d" unicode="d" 
d="M327 75q-45 -8 -87.5 -16.5t-84.5 -22.5q-11 -4 -27.5 -10.5t-33.5 -10.5t-32.5 -3t-23.5 12q-9 12 -3.5 26.5t6.5 27.5q2 15 1 30t-1 30v58t-5 57q-4 24 3.5 46.5t36.5 32.5q13 4 27 5t25.5 -3t19.5 -12t9 -21q1 -17 -4.5 -27t-15.5 -16t-23.5 -8.5t-26.5 -4.5
q-17 -35 -12 -78t22 -77q15 -2 30 0.5t30 7.5t29.5 10.5t27.5 9.5q14 4 29 6.5t22 16.5q6 11 1.5 27t-6.5 27q-5 29 -11 56.5t-9 56.5q-2 13 -4.5 28t-3 30.5t3.5 29.5t15 24q17 16 35.5 17t33.5 -7.5t24.5 -23t10 -29.5t-10 -28t-36.5 -17q-11 -2 -17.5 -2.5t-9.5 -3
t-3.5 -8t-0.5 -17.5q0 -14 1.5 -29t3.5 -29q1 -10 3 -24t6.5 -27.5t12.5 -24t22 -12.5q6 -1 14 0.5t16.5 3.5t17 4.5t14.5 3.5q5 1 13 1.5t16 2t15 4t11 6.5q10 9 13 22.5t2 28.5t-3.5 29t-3.5 25t-3.5 30.5t-3.5 41.5t0 43.5t7.5 38.5t19.5 26t36 5q27 -4 43.5 -24
t14.5 -45q-2 -23 -11.5 -29t-22 -6.5t-25.5 -1t-20 -12.5q-5 -8 -5.5 -23t1 -31.5t4.5 -31.5t5 -24q5 -20 9.5 -37.5t17.5 -34.5q7 -8 12.5 -14.5t7 -12.5t-1.5 -12.5t-14 -14.5q-18 -13 -42.5 -20t-51.5 -10.5t-53.5 -5.5t-47.5 -6z" />
    <glyph glyph-name="x" unicode="x" horiz-adv-x="240" 
d="M211 172v-16.5t-11 -12.5q-15 -5 -21.5 1t-9 17t-2.5 23v19q0 12 1 23.5t1 23.5q0 8 0.5 14t1.5 11t1.5 11t-0.5 14q-2 14 -6.5 18t-12 1.5t-16 -8t-17.5 -10.5l-45 -24q-8 -4 -20.5 -12t-21.5 -2q-3 3 -4 9.5t-1 10.5q0 42 1.5 82t1.5 81q0 13 -2 27.5t-4 29.5t-2 29
t5 26q4 10 11.5 14t15.5 2.5t14.5 -7t7.5 -15.5q3 -28 -2.5 -55t-1.5 -55q3 -17 8 -23t22 2q14 6 26.5 14t26.5 13l19 9.5t19 5.5q9 0 12.5 -8.5t4 -19.5t-1 -22t-1.5 -16q-1 -20 -1 -37.5v-34.5t1 -34.5t2 -37.5t1 -40.5v-40.5zM161 384q1 19 -8 17.5t-20 -6.5
q-8 -4 -19.5 -7t-21.5 -7.5t-16 -12t-4 -19.5q2 -13 9.5 -15.5t17 1t19 9.5t15.5 9q11 6 19 11.5t9 19.5z" />
    <glyph glyph-name="v" unicode="v" 
d="M261 487q45 8 88 16.5t85 23.5q10 3 26.5 9.5t34 11t33 3.5t23.5 -13q9 -12 3.5 -26.5t-6.5 -27.5q-2 -14 -1 -29.5t1 -30.5v-58t5 -57q4 -24 -3.5 -46t-36.5 -33q-13 -5 -27 -5.5t-25.5 3.5t-19.5 12t-9 21q-2 18 4 28t16 15.5t23 8t27 4.5q17 36 12 78.5t-22 76.5
q-15 2 -30 -0.5t-30 -7.5t-29.5 -10.5t-27.5 -9.5q-14 -4 -29 -6.5t-22 -16.5q-6 -11 -1.5 -27t6.5 -27q5 -29 11 -56.5t9 -56.5q1 -13 4 -28t3.5 -30.5t-3.5 -29.5t-15 -24q-18 -16 -36 -17t-33 7.5t-24.5 23t-10 29.5t10 28t36.5 17q11 2 17.5 3t9.5 3.5t3.5 8t0.5 16.5
q0 14 -1.5 29t-3.5 29q-1 10 -3 24.5t-6.5 28t-12.5 23.5t-22 12q-6 1 -14 -0.5t-16.5 -3.5l-17 -4t-14.5 -3q-11 -2 -29 -5t-26 -10q-10 -9 -13 -22.5t-2 -28.5t3.5 -29.5t3.5 -24.5q0 -12 2.5 -31t4 -41t0 -43.5t-7.5 -38.5t-19.5 -26t-35.5 -5q-27 5 -43.5 25t-14.5 44
q1 22 11 28.5t22.5 7l25 1t20.5 12.5q5 8 5.5 23t-1 31.5t-4.5 31.5t-5 24q-5 20 -9.5 37.5t-17.5 34.5q-7 8 -12.5 15t-7 13t1.5 12.5t14 14.5q18 13 42.5 19.5t51 10t53 5.5t47.5 6z" />
    <glyph glyph-name="m" unicode="m" horiz-adv-x="190" 
d="M121 408q-5 -1 -10.5 1.5t-10.5 4.5t-10 2t-8 -6q-6 -12 -5 -29t1 -30q1 -29 8 -55.5t6 -55.5q0 -5 -2 -11.5t-5 -11t-7.5 -6.5t-10.5 1q-4 2 -6 7.5t-2.5 12t-0.5 13v11.5q-4 32 -9 63.5t-9 63.5q-2 13 -4 33.5t-3 33.5q-1 21 10 39t28.5 28.5t37 11t36.5 -13.5
q10 -9 17.5 -25t6.5 -32.5t-12 -30.5t-36 -19z" />
    <glyph glyph-name="f" unicode="f" horiz-adv-x="387" 
d="M354 308q4 -42 1.5 -73t-24.5 -48q-15 -12 -34 -14t-34 4.5t-22 21.5t1 37q13 37 50 38q11 1 17 2t7 14q1 22 0.5 37.5t-3.5 36.5q0 5 -1 13t-3 16.5t-5.5 15t-8.5 9.5q-10 5 -24 1t-24 -7q-16 -4 -32 -7.5t-31 -7.5q-6 -2 -16 -4t-19.5 -5t-17.5 -7.5t-11 -11.5
q-3 -6 -3 -16t1.5 -20.5t3 -20.5t2.5 -17q2 -18 4 -35.5t6 -34.5q3 -14 10.5 -31.5t2.5 -32.5q-5 -16 -19 -27t-31 -15.5t-33.5 -1t-26.5 18.5q-11 15 -12 32t11 31q10 12 26 15q10 1 17 1t11 1.5t5.5 6.5t0.5 17q-1 20 -0.5 39.5t-2.5 39.5q-3 23 -6.5 45t-12.5 42
q-3 8 -6.5 14.5t-4.5 12.5t2.5 11t14.5 10q31 13 64 24t65 20q10 3 26.5 9.5t34 12t33 6t24.5 -9.5q7 -9 9 -23t1.5 -29t-1 -29.5t1.5 -24.5q3 -15 6.5 -29.5t5.5 -30.5q1 -8 2.5 -21t1.5 -21z" />
    <glyph glyph-name="n" unicode="n" horiz-adv-x="387" 
d="M34 328q-4 42 -1.5 73t25.5 49q15 12 33.5 14t33.5 -5t22 -22t-1 -37q-6 -17 -18.5 -26.5t-31.5 -10.5q-11 -1 -17 -2t-7 -15q-1 -21 -0.5 -36.5t3.5 -36.5q0 -5 1 -13t3 -16.5t5.5 -15t8.5 -9.5q10 -5 24 -1t24 6q16 5 32 8.5t31 6.5q7 1 16.5 3.5t19 6t17.5 8t11 11.5
q3 6 3 16t-1.5 20.5t-3 20.5t-2.5 17q-2 17 -4 34.5t-6 34.5q-3 15 -10.5 32t-2.5 32q5 16 19 27.5t31 16t33.5 0.5t26.5 -18q11 -15 12 -32t-11 -31q-10 -13 -26 -15q-10 -2 -17 -1.5t-11 -1t-5.5 -7t-0.5 -17.5q1 -20 0.5 -39t2.5 -39q3 -23 6.5 -45.5t12.5 -42.5
q3 -8 6.5 -14.5t4.5 -12.5t-3 -11t-14 -9q-31 -13 -64 -24.5t-65 -19.5q-10 -3 -26.5 -10t-34 -12t-33 -5.5t-24.5 9.5q-8 9 -9.5 22.5t-1 28.5t1 29.5t-1.5 24.5q-3 15 -6.5 30t-5.5 30q-1 8 -2.5 21t-1.5 21z" />
    <glyph glyph-name="j" unicode="j" horiz-adv-x="290" 
d="M153 367q1 -7 1 -18.5t1 -17.5q1 -13 1.5 -20t1.5 -13t2.5 -13t3.5 -20q2 -12 4 -24.5t3 -25.5t-1.5 -26t-8.5 -24t-15.5 -19t-22.5 -11q-19 -5 -36 -3t-32 16q-13 13 -16 30t2 33t17 27t29 11q11 0 22.5 -1.5t13.5 13.5q2 21 0 42.5t-4 42.5q-2 24 -8 48l-12 48
q-3 11 -4 24t4 22q2 4 7 8.5t10.5 8.5t11 5t9.5 -2q5 -4 7 -11t3.5 -15t3.5 -15.5t5 -12.5q10 -14 25.5 -26t29.5 -22q23 -15 41.5 -32.5t22.5 -46.5q1 -9 0 -20.5t-4.5 -22t-9 -19.5t-13.5 -13q-6 -3 -14 -3.5t-13 6.5q-6 10 0 21t8 19q4 11 2 19.5t-8 19.5q-8 12 -16 18.5
t-13 8.5q-5 3 -11.5 6.5t-13.5 4.5q-3 0 -10.5 -2t-5.5 -3z" />
    <glyph glyph-name="g" unicode="g" horiz-adv-x="597" 
d="M274 505q39 -13 79 -17t80 -11q21 -4 41 -11.5t41 -12.5q16 -4 28.5 -10t13.5 -25q1 -20 -5.5 -43t-8.5 -44q-2 -24 -5 -44t-1 -43t0.5 -48.5t3.5 -46.5q2 -11 5 -21t6 -21q3 -13 2.5 -26.5t-5.5 -25t-14.5 -19.5t-24.5 -9q-17 -2 -38 -0.5t-35 12.5t-20 32.5t2 38.5
q6 13 16 16t30 5q9 2 14.5 1.5t10.5 1.5q5 28 3.5 60.5t-1.5 61.5q0 16 0.5 30.5t1.5 29.5q0 13 2.5 28.5t-3.5 27.5q-6 11 -14.5 11.5t-19.5 3.5q-6 2 -13.5 6t-13.5 3q-10 0 -14 -5.5t-5 -13.5t0 -17t1 -16q1 -18 2.5 -33.5t6.5 -32.5q4 -13 7 -25t2.5 -23t-6.5 -20.5
t-19 -18.5q-23 -14 -45 -6.5t-36 27.5q-9 13 -11.5 29t4.5 30q7 17 18.5 17t28.5 1q9 15 9 38t-1 40q-1 16 -5 27.5t-19 19.5q-5 3 -12.5 6t-16 5t-16 1.5t-13.5 -5.5q-8 -7 -9 -21t-2 -25q-2 -23 0.5 -45t2.5 -45t-1.5 -45.5t0.5 -45.5q1 -12 3.5 -22t0.5 -21
q-3 -14 -10.5 -21t-19.5 -12q-19 -10 -41 -6.5t-39 17.5q-8 7 -12.5 17t-4 20t6.5 18.5t19 12.5q12 4 22 2.5t18 -1.5t12.5 5.5t5.5 23.5q2 45 3.5 90.5t-3.5 89.5q-1 13 -5.5 20t-11.5 11t-16.5 5.5t-20.5 4.5q-25 6 -34.5 -0.5t-9.5 -34.5q0 -35 5 -68.5t8 -67.5
q2 -26 -4 -41t-33 -20q-14 -3 -32.5 0t-33.5 11.5t-23 22t0 32.5q9 19 31 24q10 2 20 -3t19 -3q8 2 11 11.5t3.5 21t-0.5 22.5t-2 17q-2 28 0 55t0 55q-1 11 -4 22t3 21q7 12 29 11.5t47.5 -6.5t49.5 -14t34 -11z" />
    <glyph glyph-name="i" unicode="i" horiz-adv-x="598" 
d="M323 57q-39 13 -79 17t-80 11q-21 4 -41 11.5t-41 12.5q-15 5 -28 10.5t-14 24.5q-1 20 6 43.5t9 43.5q2 24 4.5 44t0.5 44q-2 22 -0.5 47.5t-3.5 46.5q-2 11 -5 21t-6 21q-3 13 -2.5 26.5t6 25t15 19t23.5 9.5q17 2 38 0.5t35 -12.5t20 -32.5t-2 -38.5q-5 -13 -15 -16
t-30 -5q-10 -2 -15 -1.5t-10 -1.5q-5 -27 -4 -60t1 -62q0 -16 -0.5 -30.5t-0.5 -29.5q-1 -13 -3.5 -28.5t4.5 -26.5q5 -11 13.5 -12t19.5 -4q6 -2 13.5 -6t13.5 -3q10 0 14 5.5t5.5 13.5t0.5 17t-1 17q-1 17 -2.5 32.5t-6.5 32.5q-4 13 -7 25t-2.5 23t6 20.5t19.5 18.5
q22 14 44 6.5t36 -27.5q9 -13 11.5 -29t-3.5 -30q-8 -17 -19.5 -17t-28.5 -1q-9 -15 -8.5 -38t1.5 -40q1 -16 5 -27t18 -19q5 -3 12.5 -6.5t16 -5.5t16 -1.5t13.5 5.5q9 7 10 21.5t1 25.5q2 23 -0.5 44.5t-2.5 44.5t2 45.5t0 45.5q-1 12 -4 22t0 21q3 14 10 21t19 13
q19 9 41.5 5.5t38.5 -17.5q8 -7 12.5 -17t4 -20t-6.5 -18.5t-19 -12.5q-12 -3 -22 -1.5t-18 1t-12.5 -6t-5.5 -23.5q-2 -45 -3.5 -90.5t3.5 -89.5q1 -14 5.5 -20.5t11.5 -10.5t16.5 -5.5t20.5 -4.5q25 -6 34.5 0.5t9.5 34.5q0 35 -5 68.5t-8 68.5q-2 25 4.5 40t33.5 20
q13 3 31.5 0t33.5 -11.5t23 -22t0 -32.5q-9 -19 -31 -24q-10 -2 -20 3.5t-18 2.5q-8 -2 -11.5 -11.5t-4 -21t0.5 -22.5t2 -17q3 -28 0.5 -55t-0.5 -55q1 -11 4 -22t-3 -21q-6 -12 -28 -11.5t-48 6.5t-50 14t-34 11z" />
    <glyph glyph-name="t" unicode="t" horiz-adv-x="592" 
d="M562 429q1 -4 0.5 -13.5t-2.5 -20.5t-3.5 -21.5t-1.5 -16.5q0 -12 -2.5 -35t-5.5 -48.5t-5 -49t-2 -35.5q0 -7 1.5 -15.5t3 -17.5t0.5 -17.5t-5 -15.5q-6 -9 -20 -14.5t-30.5 -7.5t-32 0t-24.5 8q-10 7 -12.5 20t0.5 27.5t10.5 27.5t16.5 19q10 6 21.5 8t21 8t16 21
t8.5 47q1 16 -4 20.5t-20 7.5q-9 2 -26 5.5t-35 6t-34.5 1t-23.5 -8.5q-6 -7 -8.5 -31t-2.5 -52.5t1.5 -53.5t1.5 -34q1 -12 2.5 -26.5t1.5 -28.5t-1.5 -27.5t-6.5 -25.5q-9 -18 -24.5 -25t-33.5 -4.5t-35 12t-27.5 23.5t-12.5 30t11 32q9 12 22.5 13.5t26.5 1t23.5 1.5
t13.5 15q2 8 3.5 31t1.5 48.5t-0.5 48.5t-1.5 32q-3 16 -17 24.5t-32.5 13t-38 6t-31.5 2.5q-17 1 -20.5 -4t-6.5 -25q-2 -15 -2 -30v-30v-57.5t-2 -56.5q-2 -31 -17.5 -46.5t-50.5 -11.5q-25 2 -49.5 20t-32.5 42q-8 22 -3 39.5t25 28.5q8 4 19 8t20 4q5 0 11.5 -2
t12.5 -4.5t11.5 -3t10.5 3.5q9 7 9 24.5t-1 28.5q-2 28 -3.5 56.5t-1.5 57.5q0 9 -2 27t-2.5 37t1.5 34.5t11 19.5q8 4 22.5 3.5t30.5 -3t30.5 -6t23.5 -5.5q33 -8 66 -13.5t67 -10.5q11 -2 38.5 -3t56.5 -5t53 -11.5t29 -21.5zM327 387q2 14 -2.5 22.5t-13.5 13t-19.5 7
t-20.5 4.5q-17 4 -35.5 9t-35.5 6q-14 1 -17.5 -3t-4.5 -17q0 -7 1 -19t6 -17q6 -5 18 -5.5t20 -1.5q9 -2 18.5 -4.5t19.5 -3.5q7 -1 17.5 -4t21 -3.5t18 2.5t9.5 14zM512 363q6 11 3 19.5t-10.5 14.5t-17.5 9t-17 4q-19 2 -37.5 4t-37.5 4q-14 0 -19 -1.5t-8 -13.5
q-2 -8 -1.5 -18.5t8.5 -15.5q5 -3 18.5 -3.5t19.5 -1.5h20t20 -2q6 0 14.5 -3t17 -4.5t16 -0.5t11.5 9z" />
    <glyph glyph-name="r" unicode="r" horiz-adv-x="591" 
d="M29 76q-2 4 -1 13.5t3 21t3.5 22t1.5 16.5q0 12 2.5 35t5.5 48.5t5 48.5t2 35q-1 15 -5 34t4 33q6 9 20.5 14.5t31 7.5t32 0t24.5 -8q10 -7 12.5 -20t-0.5 -27.5t-10.5 -27.5t-16.5 -19q-11 -6 -22 -8t-20.5 -8t-16.5 -21t-8 -47q-1 -16 4 -20.5t19 -7.5q9 -2 26 -6
t35.5 -6t35 -1t23.5 9q6 7 8.5 31t2.5 52.5t-1.5 53.5t-1.5 33q-1 13 -2.5 27t-1.5 28.5t1.5 28t6.5 25.5q8 18 24 25t33.5 4.5t34.5 -12t27.5 -23.5t12.5 -30t-11 -32q-9 -12 -22.5 -13.5t-26 -1t-23 -1.5t-13.5 -15q-2 -8 -3.5 -31t-2 -48.5t0 -48.5t2.5 -32
q2 -16 16.5 -25t33 -13.5t37.5 -5.5t31 -2q17 -1 21 4t6 25q2 14 2 29.5v29.5v58t3 57q2 31 17.5 46.5t50.5 11.5q24 -2 49 -20t33 -42q7 -22 2.5 -39.5t-24.5 -28.5q-8 -5 -19 -8.5t-20 -3.5q-5 0 -11.5 2t-12.5 4.5t-12 3t-11 -3.5q-8 -7 -8 -24.5t1 -28.5q2 -28 3 -56.5
t1 -57.5q0 -9 2 -27.5t2.5 -37.5t-1.5 -34.5t-10 -19.5t-22.5 -3.5t-30.5 3t-30.5 6t-23.5 5.5q-34 8 -66.5 13t-66.5 10q-12 2 -39 3.5t-56 5t-53 11.5t-29 22zM263 119q-2 -14 3 -22.5t13.5 -13t19.5 -7t20 -4.5q17 -4 36 -9t36 -6q13 -1 17 3t5 17q0 7 -1 19t-6 17
q-6 5 -18 5.5t-20 1.5q-10 2 -19 4.5t-20 3.5q-7 1 -17.5 4t-20.5 3.5t-18 -2.5t-10 -14zM79 143q-6 -11 -3 -19.5t10.5 -14.5t17 -9t17.5 -4q18 -2 37 -4l38 -4q13 -1 18.5 1t8.5 14q2 8 1.5 18.5t-8.5 15.5q-5 3 -18.5 3.5t-19.5 1.5h-20t-20 2q-6 0 -14.5 3t-17 4.5
t-16 0t-11.5 -8.5z" />
    <glyph glyph-name="o" unicode="o" horiz-adv-x="242" 
d="M196 140q3 -22 -0.5 -44t-21.5 -36q-14 -11 -33 -20t-38 -6q-17 3 -32.5 16.5t-24.5 31.5t-9 36.5t16 32.5q11 10 23 10t23.5 -3t22.5 -4.5t21 5.5q7 5 9 16t1.5 23.5t-2.5 24.5t-2 20q0 23 -1 49t-9 49q-6 -4 -10 -11.5t-9 -12.5q-6 -6 -12.5 -10.5t-13.5 -9.5
q-14 -10 -23.5 -21.5t-4.5 -30.5q2 -7 6 -14t6.5 -13t0.5 -10.5t-13 -6.5q-20 -4 -30 10t-12 33.5t1.5 40t11.5 29.5q12 14 29 23.5t31 21.5q13 11 25.5 33.5t16.5 39.5q2 6 1.5 14t4.5 13q9 9 19 4t15 -14q4 -9 5 -22.5t0 -28t-2 -28.5t1 -24q2 -20 3.5 -39t3.5 -39
q2 -29 1.5 -64t4.5 -64z" />
    <glyph glyph-name="y" unicode="y" horiz-adv-x="250" 
d="M245 347q1 -13 -2.5 -26.5t-10.5 -26t-16.5 -23t-19.5 -17.5q-17 -12 -33 -22t-35 -17q-8 -3 -15.5 -8t-12.5 -13t-7 -15t-13 -9q-12 -2 -17.5 3.5t-7 14t-1 18t1.5 16.5q3 21 1.5 43t-0.5 44q2 23 1 45.5t-1 45.5v58t-3 58q-1 13 -3.5 28.5t9.5 25.5q8 6 18.5 5.5
t17.5 -8.5q4 -5 5 -14t0 -19.5t-2.5 -20.5t-1.5 -16q-1 -19 0.5 -38t1.5 -38q0 -6 -1.5 -16t-1.5 -20t3 -16.5t11 -5.5q7 1 14.5 6t13.5 7q16 5 33.5 8.5t33 1.5t26.5 -11t14 -28zM176 298q2 11 -3 17.5t-13 9.5t-18.5 2.5t-18.5 -3.5q-12 -5 -17.5 -17t-4.5 -23t9 -18
t23 -2q14 5 27 12.5t16 21.5z" />
    <glyph glyph-name="G" unicode="G" horiz-adv-x="542" 
d="M69 166q-3 35 -6.5 67t-1.5 68q1 18 4.5 34t11.5 28.5t21 20.5t34 10q17 1 29.5 -6.5t18.5 -20.5t5 -29t-11 -31q-7 -11 -13 -13.5t-12 -2t-12.5 1.5t-14.5 -3q-14 -7 -18.5 -26t-4.5 -33q0 -12 0.5 -30.5t4 -36.5t10 -31.5t17.5 -14.5q12 -2 32 0t40 7.5t34.5 15.5
t14.5 26q0 32 -1.5 68.5t-2.5 68.5q-1 33 -4 68t-5 68q-1 13 -4 29.5t-4.5 33.5t-0.5 32.5t8 26.5q16 25 37 30.5t40.5 -1.5t35 -22.5t20.5 -32.5t-3.5 -31.5t-35.5 -19.5q-18 -3 -27 -6.5t-14 -24.5q-4 -17 -2 -35.5t0 -35.5q-2 -21 -3 -44t4 -43q3 -15 12 -20t21 -4.5
t26 5t27 10.5q19 8 23.5 24.5t2.5 36t-5.5 41t-1 40t16.5 32t47 17.5q17 2 33 -3t27.5 -15.5t16.5 -25.5t0 -32t-15 -26t-30 -11q-12 -1 -20.5 1.5t-14 2.5t-8.5 -5t-6 -21q-5 -32 -4.5 -66.5t1.5 -66.5q1 -14 7.5 -31.5t2.5 -27.5q-6 -14 -31.5 -23t-56.5 -15.5t-60.5 -11
t-42.5 -9.5q-12 -5 -34.5 -12t-47 -13t-47.5 -9t-35 0q-16 3 -21.5 16t-6 29t1.5 33.5t1 29.5zM303 226q-9 -9 -7.5 -22.5t3.5 -24.5q1 -6 1.5 -12.5t3 -11t7 -7t12.5 -1.5q11 1 25.5 5t25.5 8q11 5 16 9.5t5 15.5q0 6 1.5 14.5t1.5 17t-1.5 16.5t-6.5 12q-7 5 -19 1.5
t-20 -5.5q-11 -3 -25 -4.5t-23 -10.5z" />
    <glyph glyph-name="R" unicode="R" horiz-adv-x="528" 
d="M491 309q3 -35 7 -67.5t2 -67.5q-2 -18 -5.5 -34t-11 -29t-20.5 -21t-34 -10q-17 -1 -29.5 7t-18.5 21t-5 29t11 31q7 10 12.5 12.5t11.5 2t12.5 -1t14.5 3.5q7 3 11.5 10t7 15.5t4 17.5t1.5 16q0 12 -1 30.5t-4 36.5t-9.5 31t-18.5 15q-12 1 -32 -0.5t-39.5 -7
t-34.5 -15.5t-15 -26q0 -32 2 -68.5t3 -68.5q1 -34 3.5 -68.5t4.5 -67.5q1 -13 4 -29.5t5 -33.5t1 -32.5t-8 -26.5q-16 -25 -37.5 -30.5t-41 1.5t-35 22.5t-20.5 32.5t3 31.5t36 19.5q19 3 28 6.5t14 24.5q3 17 1.5 35.5t-0.5 35.5q2 21 3.5 44t-3.5 43q-3 15 -12 20
t-21 4.5t-26 -5t-27 -10.5q-20 -8 -24.5 -24.5t-2.5 -36.5t6 -41t1 -39.5t-16.5 -32t-46.5 -17.5q-17 -2 -33 3t-28 15.5t-17 25.5t1 32q5 17 14.5 26t29.5 11q13 0 21.5 -2.5t14 -2.5t8.5 5.5t6 21.5q5 32 4.5 66.5t-2.5 66.5q0 7 -2.5 15t-4.5 16.5t-3.5 15.5t0.5 12
q6 14 31.5 23t57 15.5t61 11t42.5 9.5q11 4 33.5 11t47 13t47.5 9.5t35 0.5q16 -3 21.5 -16t6 -29t-1.5 -33.5t-1 -29.5zM257 249q9 8 7.5 22t-2.5 25q-2 13 -5.5 23t-19.5 9q-11 -1 -25.5 -5t-25.5 -8q-11 -5 -15.5 -9.5t-5.5 -15.5q0 -6 -1 -14.5t-1 -17t1 -16.5t6 -12
q7 -5 19 -1.5t20 5.5q11 3 25 4.5t23 10.5z" />
    <glyph glyph-name="M" unicode="M" horiz-adv-x="550" 
d="M500 181q-1 -9 0.5 -19.5t2 -21.5t0.5 -21t-4 -18q-9 -18 -25.5 -29t-34 -13t-32.5 7t-19 33q-3 15 1.5 24.5t13.5 15.5t20 10t21 10q18 10 20 30.5t-3 36.5q-3 9 -11 11t-18 0.5t-20.5 -5t-19.5 -5.5q-16 -4 -36.5 -10.5t-26.5 -23.5q-7 -20 -6 -43t1 -42v-39.5t-6 -40
t-19.5 -31.5t-40.5 -14q-25 -1 -37.5 15.5t-13 36.5t12 36.5t37.5 15.5q8 -1 14 -4t13 5q5 6 5 15t1 16q0 14 3 33t-1 32q-3 12 -13.5 15.5t-23.5 2.5t-26 -4.5t-22 -6.5q-12 -3 -23.5 -6.5t-20.5 -8.5t-14.5 -14t-5.5 -24q-1 -21 0 -41.5t2 -41.5q0 -18 -0.5 -38
t-6.5 -37.5t-20 -28.5t-41 -10q-20 0 -33.5 9.5t-18 23t0.5 29.5t23 30q8 7 17.5 9t18 4.5t15 7t9.5 16.5q5 20 2.5 39t-2.5 38q-1 16 -3.5 31.5t-8.5 28.5q-5 12 -12.5 22t-10.5 24q-1 4 -2 12.5t-1 18.5t1 18.5t4 12.5q7 8 20.5 8.5t22.5 2.5q29 7 59 10.5t59 11.5
q26 7 54.5 13.5t55.5 10.5q24 3 48.5 7.5t47.5 10.5q7 2 18.5 5t22.5 4.5t20.5 -1t12.5 -12.5q1 -4 0.5 -12t-2 -16.5t-3.5 -16.5t-2 -12l-6 -45q-2 -22 -2 -51t-2 -52zM269 252q7 6 8.5 17t-0.5 19q-2 13 -5.5 13.5t-15.5 -1.5q-20 -2 -38 -6t-37 -8q-18 -4 -33.5 -16
t-11.5 -35q2 -10 9 -12t16 0t18.5 5.5t16.5 5.5q17 5 38 5.5t35 12.5zM446 286q7 4 11.5 13.5t5 18.5t-3 16t-12.5 8q-17 1 -39 -6t-39 -11q-14 -2 -29.5 -6.5t-20.5 -20.5q-4 -12 2.5 -22.5t17.5 -14.5q9 -3 23.5 -1.5t30 5.5t30 9.5t23.5 11.5z" />
    <glyph glyph-name="X" unicode="X" horiz-adv-x="242" 
d="M159 315q15 -5 26 -15t17 -23.5t5.5 -29t-9.5 -30.5q-10 -16 -24 -27t-31 -19q-10 -4 -18.5 -5.5t-18.5 -3.5q-12 -2 -15 -6t-5 -18q-5 -36 -3.5 -72.5t5.5 -73.5q0 -6 -0.5 -17t-3.5 -21t-9.5 -15.5t-17.5 1.5q-8 5 -11 15t-2.5 21.5t2 22.5t2.5 19q2 27 -0.5 55
t-4.5 55l-4 44l-4 44q-1 25 12 47t33 36q-6 4 -9 7q-10 9 -17 25t-6.5 32.5t11.5 30.5t37 19q4 1 9.5 -1.5t10.5 -5t10 -2t8 6.5q6 12 5 29t-1 30q-1 29 -8 55.5t-6 55.5q1 10 7 22t18 6q4 -2 6 -7.5t2.5 -12t0.5 -13.5t1 -11q4 -32 9 -63.5t9 -63.5q2 -13 3.5 -33.5
t2.5 -33.5q1 -16 -6 -30.5t-18 -25.5zM152 235q10 18 2.5 27t-21 9t-27.5 -9t-17 -26t5 -22.5t19.5 -3.5t23 9.5t15.5 15.5z" />
    <glyph glyph-name="U" unicode="U" horiz-adv-x="558" 
d="M47 301q1 9 0 19.5t-1.5 21t-0.5 20.5t4 18q9 18 25.5 29t34 13t32 -7t19.5 -33q3 -15 -2 -24.5t-13.5 -15.5t-19.5 -10t-21 -10q-18 -10 -20.5 -30.5t3.5 -35.5q3 -9 11 -11.5t18 -1t20.5 5t19.5 5.5q16 4 36 10.5t27 23.5q7 20 6 43t-1 42v39.5t6 40t19.5 31.5t40.5 14
q25 1 37.5 -15.5t12.5 -36t-12 -36t-37 -15.5q-8 0 -14 3t-14 -5q-5 -5 -5 -14.5v-15.5q0 -14 -3 -33.5t1 -32.5q3 -12 13.5 -15.5t23 -2.5t26 5t22.5 6q12 3 23.5 6.5t20 8.5t14 14t5.5 24q1 21 0.5 42t-1.5 42q0 18 0.5 38t6.5 37t20 28t41 11q20 0 33.5 -9.5t18 -23.5
t-0.5 -30t-23 -30q-9 -7 -18 -9t-17.5 -4.5t-15.5 -7t-10 -16.5q-5 -19 -2.5 -38.5t3.5 -38.5q1 -15 3.5 -30.5t8.5 -29.5q5 -12 12.5 -22t10.5 -23q1 -5 2 -14t1 -18.5t-1 -18t-4 -12.5q-7 -8 -21 -9t-22 -3q-29 -7 -59 -10.5t-59 -11.5q-26 -7 -54.5 -13.5t-55.5 -10.5
q-24 -3 -48.5 -7.5t-47.5 -10.5q-8 -2 -19 -5t-22 -4.5t-20.5 1t-12.5 12.5q-2 4 -1 12t2.5 17t3 17t2.5 12l6 45q2 22 1.5 51.5t1.5 52.5zM278 229q-7 -6 -8.5 -17t0.5 -19q3 -13 6.5 -13.5t15.5 1.5q20 2 37.5 6t37.5 8q18 4 33.5 16t11.5 35q-2 10 -9.5 12.5t-16.5 0.5
t-18 -6t-16 -6q-8 -2 -18 -3l-20 -2t-19.5 -4t-16.5 -9zM102 195q-8 -5 -12 -14t-5 -18t3 -16t13 -8q16 -1 38.5 6t39.5 11q13 2 29 6.5t21 20.5q4 12 -2.5 23t-17.5 14q-9 3 -24 1.5t-30.5 -5.5t-29.5 -9.5t-23 -11.5z" />
    <glyph glyph-name="P" unicode="P" horiz-adv-x="393" 
d="M357 208q2 -18 4 -35t1 -35q-1 -14 -2.5 -27.5t-8.5 -26.5q-7 -11 -14.5 -20t-20.5 -14q-11 -5 -26 -5.5t-26 6.5q-10 7 -16 17.5t-7 22.5t2 23.5t11 20.5q8 10 20 13t24 2t15 5t5 17q1 8 1 18t-5 16q-6 7 -16 9t-19 1q-30 -1 -57.5 -13t-55.5 -21q-8 -3 -18 -7t-16 -11
q-6 -8 -5 -17.5t4 -18.5q4 -12 5 -24.5t5 -23.5q3 -10 6 -19.5t2 -19.5q-1 -14 -11 -25t-24.5 -17t-29.5 -7.5t-27 3.5q-16 7 -24 17t-10 27q-1 13 1.5 23.5t11.5 19.5q13 11 28 10q4 0 7.5 -0.5t7.5 -0.5q12 1 16 11t4 23.5t-2.5 27t-2.5 21.5q0 13 -3 27q-4 15 -6.5 31
t-7.5 31q-3 8 -7.5 17t-7.5 18t-3 18t6 18q8 10 20.5 12t23.5 4q18 4 36.5 9t35.5 12q20 8 40.5 15.5t41.5 14.5q10 3 21 8t21 6q14 1 21 -5.5t9.5 -17t3 -22.5t0.5 -21q1 -17 1.5 -33.5t2.5 -33.5q2 -19 6.5 -37.5t7.5 -36.5zM282 291q12 4 15 7.5t2 11.5q-1 4 -0.5 11
t-3.5 9q-6 4 -18.5 -0.5t-19.5 -6.5q-17 -5 -34 -9.5t-35 -9.5q-9 -2 -17 -5t-17 -5q-8 -2 -17.5 -4.5t-17.5 -6.5q-10 -4 -7.5 -8.5t5.5 -9.5q2 -5 4 -11.5t7 -9.5q5 -2 11 -0.5t11 3.5q9 3 17.5 6.5t18.5 6.5q24 8 48 15.5t48 15.5z" />
    <glyph glyph-name="B" unicode="B" horiz-adv-x="391" 
d="M36 309q-2 18 -4 35t-1 35q1 14 2.5 27.5t8.5 25.5t14.5 21t21.5 14q11 4 25.5 5t25.5 -6q10 -7 16 -17.5t7 -22.5t-2 -23.5t-11 -20.5q-8 -10 -20 -13t-23 -2q-13 1 -16 -5t-5 -17q-1 -8 -1 -18t5 -16q6 -7 16 -9t19 -1q30 1 57.5 12.5t55.5 21.5q8 3 18 7t16 11
q6 8 5 17.5t-4 17.5q-3 13 -4.5 25t-5.5 24q-3 10 -6 19.5t-2 19.5q1 14 11 25t24.5 17t29.5 7.5t27 -3.5q16 -7 24 -17t10 -27q1 -13 -1.5 -23.5t-11.5 -19.5q-13 -11 -28 -11q-10 2 -15 2q-12 -1 -16 -11.5t-4 -24t2.5 -27t2.5 -20.5q0 -14 3 -27q4 -15 6.5 -31t7.5 -31
q3 -9 7.5 -18t7.5 -18t3 -17.5t-6 -17.5q-8 -10 -20.5 -12t-23.5 -4q-36 -8 -72 -21q-20 -8 -40.5 -15.5t-41.5 -14.5q-10 -4 -21 -8.5t-21 -5.5q-14 -2 -21 5t-9.5 17.5t-3 22.5t-0.5 21q-1 17 -1.5 33.5t-2.5 33.5q-2 19 -6.5 37t-7.5 37zM111 226q-12 -4 -15 -7.5
t-2 -11.5q1 -4 0.5 -11t3.5 -9q6 -4 18.5 0.5t19.5 6.5q17 5 34 9.5t35 9.5q9 2 17 5t17 5q8 2 17.5 4.5t17.5 5.5q10 5 7.5 9.5t-5.5 9.5q-2 5 -4 11.5t-7 9.5q-5 2 -11 0.5t-11 -3.5q-9 -3 -17.5 -6.5t-18.5 -6.5q-24 -8 -48 -15.5t-48 -15.5z" />
    <glyph glyph-name="E" unicode="E" horiz-adv-x="232" 
d="M142 390q19 0 34.5 -9.5t24.5 -24t10 -32.5t-9 -35t-24.5 -28t-31.5 -18q-9 -5 -17.5 -6.5t-18.5 -3.5q-12 -2 -15 -6t-5 -17q-6 -36 -4.5 -73t5.5 -74q1 -6 0 -17t-4 -21t-9.5 -15t-16.5 1q-8 5 -11 15t-2.5 21.5t2 23t2.5 18.5q2 27 -0.5 55t-4.5 55q-2 22 -4.5 44
t-3.5 44q-1 20 7.5 39t23 33t33.5 22.5t39 8.5zM156 306q10 18 2 27t-21.5 9t-27.5 -9t-17 -25q-3 -17 5 -22.5t19.5 -3.5t23 9t16.5 15z" />
    <glyph glyph-name="H" unicode="H" horiz-adv-x="229" 
d="M90 174q-19 0 -34.5 9.5t-24.5 24t-10.5 32.5t9.5 35q10 17 24 28t31 18q10 4 18.5 5.5t18.5 3.5q12 2 15 6.5t5 17.5q6 36 4 73t-6 73q0 6 0.5 17.5t3.5 21.5t9.5 15t17.5 -1q8 -5 11 -15t2.5 -21.5t-2 -23t-2.5 -18.5q-2 -27 0.5 -55.5t4.5 -54.5q2 -23 4 -44.5
t4 -43.5q1 -21 -8 -39.5t-23.5 -33t-33.5 -22.5t-38 -8zM76 258q-10 -18 -2.5 -27t21 -9t27.5 8.5t17 25.5t-5 22.5t-19.5 3.5t-23 -9t-15.5 -15z" />
    <glyph glyph-name="K" unicode="K" horiz-adv-x="580" 
d="M322 163q-45 -8 -87.5 -16.5t-84.5 -22.5q-11 -4 -27.5 -10.5t-33.5 -10.5t-32.5 -3t-23.5 12q-9 12 -4 26.5t7 27.5q2 15 1 30t-1 30v58t-5 57q-4 24 3 46.5t36 32.5q13 4 27 5t26 -3t20 -12t9 -21q1 -17 -4.5 -27t-15.5 -16t-23.5 -8.5t-27.5 -4.5q-8 -18 -10.5 -38
t-0.5 -40.5t7.5 -40t14.5 -36.5q15 -2 30 0.5t29.5 7.5t29 10.5t27.5 9.5q14 4 29.5 6.5t22.5 16.5q6 11 1.5 27t-6.5 27q-5 29 -11 56.5t-9 56.5q-2 13 -4.5 28t-3 30.5t3.5 29.5t15 24q17 16 35.5 17t33.5 -7.5t24.5 -23t10 -29.5t-10 -28t-36.5 -17q-11 -2 -17.5 -2.5
t-9.5 -3t-4 -8t-1 -17.5q1 -14 2.5 -29t3.5 -29q1 -10 3 -24t6.5 -27.5t12.5 -24t22 -12.5q11 -2 30 4t31 8q11 2 29 4t27 10q10 9 12.5 22.5t2 28.5t-3.5 29t-3 25q-1 11 -3.5 30.5t-3.5 41.5t0 43.5t7.5 38.5t19.5 26t36 5q26 -4 43 -24.5t15 -44.5q-2 -23 -11.5 -29
t-22 -6.5t-25.5 -1t-20 -12.5q-5 -8 -5.5 -23t1 -31.5t4.5 -31.5t5 -24q5 -20 9 -37.5t18 -34.5q6 -8 11.5 -15t7 -13t-1.5 -12.5t-14 -14.5q-18 -13 -42.5 -19.5t-51 -10t-53 -5.5t-47.5 -6z" />
    <glyph glyph-name="S" unicode="S" horiz-adv-x="580" 
d="M258 396q45 8 87.5 16.5t84.5 23.5q10 3 26.5 9.5t34 11t33 3.5t23.5 -13q9 -12 3.5 -26.5t-6.5 -27.5q-2 -14 -1 -29.5t1 -30.5v-58t5 -57q4 -24 -3.5 -46t-36.5 -33q-12 -5 -26 -5.5t-26 3.5t-20 12t-9 21q-2 18 4 28t16 15.5t23.5 8t27.5 4.5q16 35 11 78t-22 77
q-15 2 -30 -0.5t-30 -7.5t-29.5 -10.5t-27.5 -9.5q-14 -4 -29 -6.5t-22 -16.5q-6 -11 -1.5 -27t6.5 -27q5 -29 11 -56.5t9 -56.5q1 -13 4 -28t3.5 -30.5t-3.5 -29.5t-15 -24q-18 -16 -36 -17t-33 7.5t-24.5 23t-10 29.5t10 28t36.5 17q11 2 17.5 3t9.5 3.5t3.5 8t0.5 16.5
q0 14 -1.5 29t-3.5 29q-1 10 -3 24.5t-6.5 28t-12.5 23.5t-22 12q-6 1 -14 -0.5t-16.5 -3.5l-17 -4t-14.5 -3q-11 -2 -29 -5t-26 -10q-10 -9 -13 -22.5t-2 -28.5t3.5 -29.5t3.5 -24.5q1 -12 3.5 -31t3.5 -41t0 -43.5t-7.5 -38.5t-20 -26t-35.5 -5q-26 5 -43 25t-15 44
q1 22 11 28.5t22.5 7l25 1t20.5 12.5q5 8 5.5 23t-1 31.5t-4.5 31.5t-5 24q-5 20 -9.5 37.5t-17.5 34.5q-7 8 -12.5 15t-7 13t1.5 12.5t14 14.5q18 13 42.5 19.5t51.5 10t53.5 5.5t47.5 6z" />
    <glyph glyph-name="Q" unicode="Q" horiz-adv-x="183" 
d="M69 357q5 1 10 -1.5t10.5 -5t10 -2t7.5 6.5q7 12 6 29t-2 30q-1 29 -8 55.5t-5 55.5q0 10 6 22t19 6q8 -5 8 -20t1 -24q4 -32 9 -63.5t9 -63.5q2 -13 3.5 -33.5t2.5 -33.5q1 -21 -10 -39t-28 -28.5t-37 -11t-36 13.5q-11 9 -18 25t-6 32.5t11.5 30.5t36.5 19z" />
    <glyph glyph-name="C" unicode="C" horiz-adv-x="182" 
d="M113 290q-5 -1 -10.5 1.5t-10.5 4.5t-10 2t-8 -6q-6 -12 -5 -29.5t1 -30.5q1 -28 8 -55t6 -55q0 -5 -2 -11.5t-5 -11t-7.5 -6.5t-10.5 1q-4 2 -6 7.5t-2.5 12t-0.5 13v10.5q-4 33 -9 64.5t-9 63.5q-2 13 -4 33t-3 33q-1 21 10 39t28.5 29t37 11.5t36.5 -13.5
q10 -9 17.5 -25t6.5 -32.5t-12 -30.5t-36 -19z" />
    <glyph glyph-name="D" unicode="D" horiz-adv-x="373" 
d="M348 203q4 -42 1.5 -73t-24.5 -48q-15 -12 -34 -14t-34 4.5t-22 21.5t1 37q13 37 50 38q11 1 17 2t7 14q2 22 1 37.5t-3 36.5q-1 5 -2 13t-3 16.5t-5.5 15t-8.5 9.5q-10 5 -24 0.5t-24 -6.5l-63 -15q-6 -2 -16 -4t-19.5 -5t-17.5 -7.5t-11 -11.5q-3 -6 -3 -16t1.5 -20.5
t3 -20.5t2.5 -17q2 -18 4 -35.5t6 -34.5q3 -14 10.5 -31.5t2.5 -32.5q-5 -16 -19 -27t-30.5 -15.5t-33.5 -1t-27 18.5q-11 15 -12 32t11 31q10 12 26 15q10 1 17 1t11 1.5t5.5 6.5t1.5 17q-1 20 -1 39.5t-2 39.5q-3 23 -7 45t-12 42q-3 8 -7 14.5t-4.5 12.5t3 11t14.5 10
q30 13 63 24t65 20q10 3 27 9.5t34 12t32.5 6t24.5 -9.5q7 -9 9 -23t2 -29t-1 -29.5t1 -24.5q3 -15 7 -29.5t6 -30.5q1 -8 1.5 -21t1.5 -21z" />
    <glyph glyph-name="W" unicode="W" horiz-adv-x="400" 
d="M51 386q-4 42 -2 73t25 48q15 12 33.5 14t33.5 -5t22 -21.5t-1 -36.5q-12 -35 -50 -37q-11 -1 -17 -2t-7 -15q-1 -21 0 -36.5t3 -37.5q0 -5 1 -13t3 -16t5.5 -15t8.5 -10q11 -5 24.5 -0.5t24.5 6.5q15 4 31 8t32 7q6 1 15.5 3.5t19 5.5t17.5 8t11 12q3 6 3 15.5t-1 20
t-2.5 21l-2.5 17.5q-2 17 -4 34.5t-7 34.5q-3 14 -10.5 31.5t-2.5 32.5q5 16 19 27.5t31 16t33.5 0.5t26.5 -19q11 -14 12 -31t-11 -32q-11 -12 -26 -14q-10 -2 -17 -1.5t-11 -1t-5.5 -7t-0.5 -17.5q1 -20 0.5 -39.5t2.5 -39.5q3 -22 7 -44.5t12 -42.5q3 -8 6.5 -14.5
t4.5 -12.5t-2.5 -11t-14.5 -9q-31 -13 -63.5 -24.5t-64.5 -20.5q-11 -3 -27.5 -9.5t-34 -12t-33 -6t-24.5 10.5q-7 9 -9 22.5t-1.5 28.5t1 29t-1.5 25q-3 15 -6.5 30t-5.5 30q-1 8 -2 21t-1 21z" />
    <glyph glyph-name="F" unicode="F" horiz-adv-x="280" 
d="M148 259q1 -7 0.5 -18.5t0.5 -17.5q1 -13 1.5 -20t1.5 -12.5t2.5 -12.5t3.5 -20t4 -25.5t3 -25.5t-1.5 -26t-8.5 -24t-15.5 -19t-22.5 -11q-19 -5 -36 -3t-31 16q-14 13 -17 30t2.5 33t17 27t28.5 11q12 0 23 -1.5t13 14.5q3 20 0.5 41.5t-4.5 42.5q-2 24 -8 48l-12 48
q-3 11 -4 24t4 22q2 4 7 8.5t10.5 8.5t11 5t10.5 -2q4 -4 6.5 -11t4 -15t3 -15.5t4.5 -12.5q11 -14 26.5 -26t29.5 -22q23 -15 41 -32.5t22 -46.5q1 -9 0 -20t-4.5 -22t-9 -20t-13.5 -13q-6 -3 -14 -3.5t-13 6.5q-6 10 0 21t9 19q3 11 1 19.5t-8 19.5q-8 12 -15.5 18.5
t-12.5 9.5q-5 2 -11.5 5.5t-14.5 4.5q-3 0 -10 -2t-5 -3z" />
    <glyph glyph-name="Y" unicode="Y" horiz-adv-x="581" 
d="M269 572q39 -13 79 -17t80 -11q22 -4 42 -11.5t40 -12.5q16 -4 28.5 -10t13.5 -25q1 -20 -5.5 -43t-8.5 -44q-2 -24 -4.5 -44t-0.5 -43q1 -23 -0.5 -48.5t3.5 -46.5q2 -11 5 -21t6 -21q4 -13 3.5 -26.5t-6 -25t-15 -19.5t-24.5 -9q-17 -2 -38 -0.5t-35 12.5t-20 32.5
t2 38.5q6 13 16 16t30 5q10 2 15 2t10 2q5 27 3.5 59.5t-1.5 61.5q0 16 1 30.5t1 29.5q0 13 2.5 28.5t-3.5 27.5q-4 7 -11.5 10t-16.5 5t-18 3.5t-15 5.5q-10 0 -14 -5.5t-5 -13.5t0 -17t1 -16q1 -18 2.5 -33.5t6.5 -32.5q4 -13 7 -25t2.5 -23t-6.5 -20.5t-19 -18.5
q-22 -14 -44.5 -6.5t-36.5 27.5q-8 13 -10.5 29t3.5 30q7 17 19 17t28 1q10 15 9.5 38t-1.5 40t-5 28t-18 19q-5 3 -13 6t-16 5t-16 1.5t-14 -5.5q-8 -7 -9 -21t-2 -25q-1 -23 1.5 -45t2.5 -45t-2 -45.5t0 -45.5q1 -12 3.5 -22t0.5 -21q-3 -14 -10.5 -21t-19.5 -12
q-19 -9 -41 -6t-39 17q-8 7 -12.5 17t-4 20t6.5 18.5t19 12.5q12 4 22.5 2.5t18 -1.5t12.5 5.5t6 23.5q2 45 3 90.5t-3 89.5q-2 13 -6.5 20t-11.5 11t-16.5 5.5t-20.5 4.5q-25 6 -34.5 -0.5t-9.5 -34.5q0 -35 5.5 -68.5t7.5 -67.5q2 -26 -4 -41t-33 -20q-14 -3 -32 0
t-33 11.5t-23 22t0 32.5q7 19 30 24q11 2 21 -3t18 -3t11 11.5t3.5 21t-0.5 22.5t-2 17q-2 28 0 55t0 55q0 11 -3.5 22t2.5 21q7 12 29 11.5t47.5 -6.5t49.5 -14t34 -11z" />
    <glyph glyph-name="N" unicode="N" horiz-adv-x="581" 
d="M311 -20q-39 13 -79 17t-81 11q-21 4 -41 11.5t-40 12.5q-16 4 -28.5 10t-13.5 25q-1 20 5.5 43t8.5 44q2 24 4.5 44t0.5 43q-1 23 0.5 48.5t-3.5 46.5q-2 11 -5 21t-6 21q-4 13 -3.5 26.5t6 25t15 19t24.5 9.5q17 2 37.5 0.5t35.5 -12.5q14 -11 19.5 -32.5t-1.5 -38.5
q-6 -13 -16 -16t-30 -5q-10 -2 -15 -2t-10 -2q-5 -27 -3.5 -59.5t1.5 -61.5q0 -16 -1 -30.5t-1 -29.5q0 -13 -2.5 -28.5t3.5 -27.5q6 -11 14 -11.5t20 -3.5q6 -2 13.5 -6t13.5 -3q10 0 14 5.5t5 13.5t0 17t-1 16q-1 18 -2.5 33.5t-6.5 32.5q-4 13 -7 25t-2.5 23t6 20.5
t19.5 18.5q22 14 44.5 6.5t36.5 -27.5q8 -13 10.5 -29t-3.5 -30q-7 -17 -19 -17t-28 -1q-10 -15 -9.5 -38t1.5 -40t5 -28t18 -19q5 -3 13 -6t16 -5t16 -1.5t14 5.5q8 7 9 21t2 25q1 23 -1.5 45t-2.5 45t2 45.5t0 45.5q-1 12 -3.5 22t-0.5 21q3 14 10.5 21t19.5 12
q19 10 41 6.5t39 -17.5q8 -7 12.5 -17t4 -20t-6.5 -18.5t-19 -12.5q-12 -4 -22.5 -2.5t-18 1.5t-12.5 -5.5t-6 -23.5q-2 -45 -3 -90.5t3 -89.5q1 -14 6 -20.5t12 -10.5t16.5 -5.5t20.5 -4.5q25 -6 34.5 0.5t9.5 34.5q0 35 -5.5 68.5t-7.5 67.5q-2 26 4 41t33 20q13 3 31.5 0
t33.5 -11.5t23 -22t0 -32.5q-7 -19 -30 -24q-11 -2 -21 3t-18 3t-11 -11.5t-3.5 -21t0.5 -22.5t2 -17q2 -28 0 -55t-1 -55q1 -11 4.5 -22t-2.5 -21q-7 -12 -29 -11.5t-47.5 6.5t-49.5 14t-34 11z" />
    <glyph glyph-name="I" unicode="I" horiz-adv-x="576" 
d="M556 368q1 -4 0 -11.5t-2.5 -16t-3.5 -17t-2 -14.5q0 -12 -2.5 -35t-5 -48.5t-5 -48.5t-2.5 -35q1 -15 5.5 -34t-4.5 -32q-6 -9 -20.5 -14.5t-31 -7.5t-32 -0.5t-23.5 7.5q-10 7 -12.5 20t0.5 27.5t10 27.5t17 19t21 8t21 8.5t16.5 21t7.5 46.5q1 17 -3.5 21t-19.5 7
q-9 2 -26 6t-35 6t-34.5 1t-23.5 -8t-9.5 -31.5t-2.5 -53t1.5 -53.5t2.5 -33q1 -26 3 -56t-8 -52q-8 -19 -24 -25.5t-33.5 -4.5t-34.5 11.5t-27.5 23.5t-12.5 30.5t11 32.5q9 12 22.5 13t26.5 0.5t23.5 1.5t13.5 15q2 8 3.5 31t1.5 48.5t-1 48.5t-2 32q-2 16 -16 24.5
t-32.5 13t-38 6t-31.5 2.5q-17 1 -20.5 -4t-6.5 -25q-2 -14 -2 -29v-30v-57.5t-2 -57.5q-3 -31 -18 -46t-50 -12q-25 2 -50 20t-33 43q-7 21 -2 38.5t25 28.5q8 5 19 8.5t19 4.5q5 0 11.5 -2.5t12.5 -5t12 -3t11 3.5q9 7 8.5 24.5t-0.5 28.5q-2 28 -3.5 57t-1.5 58
q0 9 -2 25t-3 32t1.5 29.5t10.5 17.5t23 3.5t30.5 -3t30.5 -6t23 -5.5q34 -8 66.5 -13t67.5 -10q11 -2 38 -3.5t56.5 -5t53.5 -11.5t29 -22zM321 340q2 13 -3 21.5t-13.5 13.5t-19.5 7.5t-20 4.5q-17 3 -35.5 8t-36.5 7q-13 1 -17 -3.5t-4 -16.5q-1 -8 0.5 -20t6.5 -17
t17.5 -5.5t19.5 -1.5q10 -2 19.5 -4t19.5 -4q7 -1 17.5 -3.5t20.5 -3.5t18 2.5t10 14.5zM506 315q6 11 3 19.5t-10.5 14.5t-17.5 9t-17 4q-19 2 -38 4.5t-38 3.5q-13 1 -18 -1t-8 -14q-2 -8 -2 -18t8 -15q5 -4 18.5 -4.5t20.5 -0.5q10 -1 19.5 -1t20.5 -1q6 -1 14.5 -4
t16.5 -4.5t15.5 -0.5t12.5 9z" />
    <glyph glyph-name="L" unicode="L" horiz-adv-x="608" 
d="M50 190q-2 4 -1 11.5t3 16t3.5 17t1.5 14.5q0 12 2.5 35t5.5 48.5t5 48.5t2 35q0 15 -4.5 34t4.5 32q6 9 20 14.5t30.5 7.5t32 0.5t24.5 -7.5q10 -7 12.5 -20t-0.5 -27.5t-10.5 -27.5t-16.5 -19q-11 -6 -22 -6t-20 -4t-16 -16.5t-8 -44.5q-1 -17 4 -21t20 -7q9 -2 26 -6
t35 -6t34.5 -1.5t23.5 8.5q6 7 8 29.5t2 48.5t-1.5 49t-1.5 31q-2 25 -4.5 55t8.5 53q8 19 24 25.5t34 4t34.5 -12t27.5 -23t12.5 -30t-10.5 -32.5q-10 -12 -23.5 -13t-26 -0.5t-23 -1.5t-13.5 -15q-2 -8 -2.5 -34.5t1 -55.5t6.5 -53t13 -27q28 -10 45.5 -15t29 -6.5
t19 -0.5t15.5 3q9 2 13 10.5t5 19.5t0.5 22t-0.5 19v57.5t2 57.5q2 31 17.5 46t50.5 12q25 -2 49.5 -20t32.5 -43q8 -21 3 -38.5t-25 -28.5q-8 -5 -19 -8.5t-20 -4.5q-5 0 -11.5 2.5t-12.5 4.5t-12 3t-10 -3q-9 -7 -9 -24.5t1 -28.5q2 -28 3.5 -57t1.5 -58q0 -9 2 -25
t2.5 -32t-1.5 -29.5t-11 -17.5q-8 -4 -22.5 -3.5t-30.5 3t-30.5 6t-23.5 5.5q-33 8 -66 13t-67 10q-12 2 -39 3.5t-56 5t-53 11.5t-29 22zM285 218q-2 -14 2.5 -22t13.5 -13t19.5 -7.5t20.5 -4.5q17 -3 35.5 -8t35.5 -7q13 -1 17 3.5t5 16.5q0 8 -1 20t-6 17q-6 5 -18 5.5
t-20 1.5q-9 2 -18.5 4t-19.5 4q-8 1 -18.5 3.5t-20.5 3.5t-18 -2.5t-9 -14.5zM100 243q-6 -11 -3 -19.5t10.5 -14.5t17 -9t17.5 -4q19 -2 37.5 -4.5t37.5 -3.5q14 -1 19 1t8 14q2 8 1.5 18t-8.5 15q-5 4 -18.5 4.5t-19.5 0.5q-11 1 -20 1t-20 1q-6 1 -14.5 4t-17 4.5t-16 0
t-11.5 -8.5z" />
    <glyph glyph-name="O" unicode="O" horiz-adv-x="222" 
d="M192 71q4 -21 0 -43t-22 -36q-14 -11 -32.5 -20.5t-37.5 -5.5q-17 3 -33 16.5t-25 31.5t-9 36.5t16 31.5q11 10 23 10t23.5 -2.5t22.5 -4t21 5.5q8 5 10 16t1 23.5t-3 24.5t-2 20q0 23 -1 49t-9 48q-6 -3 -10 -10.5t-9 -13.5q-5 -5 -12 -9.5t-14 -9.5q-14 -10 -23 -22
t-4 -31q1 -7 5.5 -14t6.5 -13t0 -10.5t-12 -6.5q-20 -4 -30 10t-12.5 34t1.5 40.5t12 29.5q11 14 28.5 23.5t30.5 20.5q6 6 13 15t12.5 19t10 20.5t6.5 18.5q2 7 1.5 14.5t4.5 12.5q9 9 19 4t15 -14q4 -9 5 -22t0 -28t-2 -29t1 -24q3 -20 4 -39t3 -39q1 -14 1.5 -30.5
t0.5 -33t1 -33t3 -31.5z" />
    <glyph glyph-name="J" unicode="J" horiz-adv-x="250" 
d="M227 343q2 -13 -2 -26.5t-11 -26t-16.5 -23t-19.5 -17.5q-17 -13 -33 -23t-35 -17t-28 -20q-5 -8 -7 -15t-13 -9q-12 -2 -17.5 3.5t-7 14t-1 18t1.5 15.5q3 22 1.5 44t0.5 44q2 23 1 45.5t-1 45.5q0 29 -0.5 58t-2.5 58q-2 13 -4.5 28.5t9.5 25.5q8 6 19 5t17 -8
q4 -5 5 -14t0 -19.5t-2.5 -20.5t-1.5 -16q-1 -20 0.5 -38.5t1.5 -38.5q0 -6 -1 -16t-1 -19.5t3 -16t11 -5.5q7 1 14 6t14 7q16 5 33.5 8.5t32.5 1.5t26 -11t14 -28zM158 294q3 11 -2 17.5t-13.5 9.5t-19 2.5t-18.5 -4.5q-11 -5 -16.5 -16.5t-4.5 -22.5t9 -18t23 -2
q14 4 26.5 12t15.5 22z" />
    <glyph glyph-name="T" unicode="T" horiz-adv-x="224" 
d="M205 214q0 -9 -0.5 -17.5t-10.5 -11.5q-15 -5 -22 1t-9 16.5t-2 22.5v19q-1 12 0 23.5t1 23.5q0 8 0.5 14t1.5 11t1.5 11t-0.5 14q-2 14 -6.5 18t-12 1.5t-16 -8t-17.5 -10.5l-22 -12l-22 -12q-4 -2 -9.5 -5.5t-11.5 -6.5t-12 -4t-10 2q-3 3 -4 9.5t-1 11.5q0 41 1.5 81
t1.5 82q0 13 -2 27.5l-4 29t-2 28.5t5 26q4 10 11.5 14t15.5 2.5t14.5 -7t7.5 -15.5q1 -14 0 -27.5t-2.5 -27t-2 -27.5t1.5 -28q2 -17 7 -23t22 2q14 6 27 14t27 14q7 3 18 9t19 5q9 0 12.5 -8.5t4 -19.5t-1 -22t-1.5 -16q-2 -40 -1 -71.5t3 -72.5q1 -20 1.5 -40t0.5 -40z
M154 425q1 19 -7.5 17.5t-20.5 -6.5q-8 -3 -19 -6.5t-21 -8t-16.5 -11.5t-4.5 -19q3 -13 10.5 -15.5t16.5 0.5t18.5 9t15.5 9q12 6 20 11.5t8 19.5z" />
    <glyph glyph-name="V" unicode="V" horiz-adv-x="350" 
d="M327 359q2 -14 -3.5 -20t-21.5 -11q-9 -3 -18 -4.5t-16.5 -4.5t-12 -8t-4.5 -15q1 -12 3 -24.5t3 -24.5q2 -11 2.5 -24t-4.5 -24l-4 -6t-7 -5q-2 -2 -10.5 -2t-10.5 2q-4 3 -4 11t0.5 18.5t2 21.5t0.5 20v18.5t-5 18.5q-7 11 -18.5 6t-22.5 -10q-20 -8 -22 -19t0 -27
l2.5 -12.5t2.5 -16t0 -15.5t-5 -11q-6 -5 -14.5 -2.5t-12.5 7.5t-2.5 13t1.5 15q0 4 0.5 12t0.5 16t-2 14.5t-6 9.5q-14 -5 -30 -10.5t-30 -7.5q-6 -1 -8.5 3.5t-4.5 8.5t-1.5 10t0.5 10q0 13 6.5 17t19.5 9q9 3 21 8t17 13q2 5 3.5 18t-4.5 16q-3 2 -9.5 0t-13.5 -5
t-13.5 -6.5t-9.5 -4.5q-17 -5 -19 3.5t-4 20.5q-2 16 3.5 20t22.5 9q9 3 20.5 7.5t16.5 12.5t4 20t-1 21q0 14 0.5 28.5t-2.5 26.5q-2 7 -3 12.5t12 8.5q17 4 22 -10q5 -12 3.5 -29t-1.5 -30q0 -5 -1.5 -13t-1 -14.5t4 -10t13.5 0.5q11 4 26 12.5t23 15.5q10 10 7.5 25.5
t-3.5 28.5q0 5 -1.5 12.5t-1.5 16t2 15.5t8 11q9 5 14 2.5t8 -8.5t4 -13.5t1 -11.5q0 -11 0.5 -21t0.5 -21q0 -6 -1.5 -19.5t4.5 -17.5q5 -3 12 -1t14 5t13.5 6t12.5 3t10.5 -5t7 -11.5t2 -14t-3.5 -11.5q-7 -10 -22.5 -14t-26.5 -9q-8 -4 -10.5 -7t-2.5 -12v-14t3 -13
q3 -2 9.5 -1t14 4t14 6t9.5 4q19 5 23 -1.5t6 -20.5zM177 348q7 2 15.5 4t14.5 5.5t9 9.5t0 16q-2 8 -5.5 13.5t-11.5 6.5q-10 1 -20.5 -3.5t-18.5 -9.5q-11 -5 -13.5 -12.5t-0.5 -18.5q2 -14 11 -14t20 3z" />
    <glyph glyph-name="Z" unicode="Z" horiz-adv-x="292" 
d="M155 336q-1 7 -0.5 18.5t-0.5 17.5q-1 13 -1.5 20t-1.5 12.5t-2.5 12.5t-3.5 20t-4 25.5t-3 25.5t1.5 26t8.5 24t15.5 19t22.5 11q19 5 36 3t31 -16q13 -13 16.5 -30.5t-2 -33t-17.5 -26.5t-28 -11q-12 0 -23 1.5t-13 -14.5q-3 -20 -0.5 -41.5t4.5 -42.5q2 -24 8 -48
l12 -48q3 -11 4 -24t-4 -22q-2 -4 -7 -8.5t-10.5 -8.5t-11.5 -5t-10 2q-5 4 -7 11t-3.5 15t-3 15.5t-4.5 12.5q-11 14 -26.5 26t-29.5 22q-23 15 -41 32.5t-22 46.5q-1 9 0 20t4.5 22t9 20t13.5 13q6 3 14 3.5t13 -6.5q6 -10 0 -21t-9 -19q-3 -11 -1 -19.5t8 -19.5
q8 -12 15.5 -18.5t12.5 -9.5q5 -2 11.5 -5.5t14.5 -4.5q3 0 10 2t5 3z" />
    <glyph glyph-name="q" unicode="q" horiz-adv-x="291" 
d="M155 186q-1 7 -0.5 18.5t-0.5 17.5q-1 13 -1.5 20t-1.5 12.5t-2.5 12.5t-3.5 20t-4 25.5t-3 25.5t1.5 26t8.5 24t15.5 19t22.5 11q19 5 36 3t31 -16q13 -13 16.5 -30.5t-2 -33t-17.5 -26.5t-28 -11q-12 0 -23 1.5t-13 -14.5q-3 -20 -0.5 -41.5t4.5 -42.5q2 -24 8 -48
l12 -48q3 -11 4 -24t-4 -22q-2 -4 -7 -8.5t-10.5 -8.5t-11.5 -5t-10 2q-5 4 -7 11t-3.5 15t-3 15.5t-4.5 12.5q-11 14 -26.5 26t-29.5 22q-23 15 -41 32.5t-22 46.5q-1 9 0 20t4.5 22t9 20t13.5 13q6 3 14 3.5t13 -6.5q6 -10 0 -21t-9 -19q-3 -11 -1 -19.5t8 -19.5
q8 -12 15.5 -18.5t12.5 -9.5q5 -2 11.5 -5.5t14.5 -4.5q3 0 10 2t5 3z" />
    <glyph glyph-name="c" unicode="c" horiz-adv-x="527" 
d="M491 387q3 -36 6.5 -68t1.5 -68q-1 -18 -4.5 -34t-11.5 -28.5t-21 -21t-34 -9.5q-17 -2 -29.5 6t-18.5 21t-5 29t11 31q7 10 13 13t12 2.5t12.5 -1.5t14.5 3q14 7 18.5 26t4.5 34q0 12 -0.5 30.5t-4 36.5t-10 31t-17.5 15q-12 1 -32 -0.5t-40 -7.5t-34.5 -16t-14.5 -26
q0 -32 1.5 -68t2.5 -69t4 -67.5t5 -67.5q1 -13 4 -29.5t4.5 -33.5t0.5 -33t-8 -26q-16 -25 -37 -30.5t-40.5 1t-35 22.5t-20.5 32.5t3 31t36 19.5q9 2 15.5 3t11.5 4t8.5 8.5t5.5 16.5q4 16 2 34.5t0 35.5q2 21 3 44t-4 43q-3 15 -12 20.5t-21 5t-26 -5.5t-27 -11
q-19 -8 -23.5 -24.5t-2.5 -36t5.5 -41t1 -39.5t-16.5 -31.5t-47 -17.5q-17 -2 -33 3t-27.5 15t-16.5 25t0 32t15 26.5t30 10.5q12 1 20.5 -1.5t14 -2.5t8.5 5t6 21q5 32 4.5 67t-1.5 67q0 7 -2.5 15t-5 16.5t-3.5 15.5t1 12q6 13 31.5 22t56.5 15.5t60.5 11.5t42.5 10
q12 4 34 11t47 13t48 9.5t35 0.5q16 -4 21.5 -16.5t6 -29t-1.5 -33.5t-1 -29zM257 326q9 9 7.5 23t-3.5 24q-2 14 -4.5 24t-19.5 9q-11 -1 -25.5 -5t-25.5 -9q-11 -4 -16 -9t-5 -16q0 -6 -1.5 -14.5t-1.5 -17t1.5 -16t6.5 -11.5q7 -6 19 -2.5t20 5.5q11 3 25 5t23 10z" />
    <glyph glyph-name="registered" unicode="&#xae;" horiz-adv-x="569" 
d="M474 285q19 -17 34 -39.5t17 -48.5q0 -12 -3.5 -27t-10.5 -30t-15 -29t-17 -24q-13 -15 -29 -33t-30 -32q-7 -7 -9.5 -12.5t-2.5 -11t1.5 -12t2.5 -14.5v-17.5t-2 -17.5q-3 -17 -14 -36t-26.5 -36.5t-33.5 -32.5t-34 -23q-13 -7 -32.5 -13t-40.5 -9t-41 -1t-32 12
q-17 13 -19.5 30.5t5 33t24 26.5t39.5 12q8 0 18 -2t17 -6.5t8.5 -12t-5.5 -17.5q-3 -4 -7.5 -7t-7.5 -6t-3.5 -7t4.5 -9q5 -6 16 -5.5t19 2.5q20 4 37.5 16t31 28.5t22.5 35t12 35.5q1 7 2 14.5t-1 13t-8 8t-17 -0.5q-18 -5 -38 -12t-39 -12q-44 -14 -89 -14.5t-80 22.5
q-16 10 -29.5 26.5t-23 35t-13.5 39t-1 40.5q3 19 9 36t14 36q11 25 28.5 49.5t37.5 44.5q11 11 18.5 23.5t20.5 35.5q8 14 2.5 26t-10.5 26q-6 20 -11 38t-7 36.5t0.5 38t12.5 41.5q9 19 20 36t25 34q15 21 37.5 38.5t48.5 21.5q12 2 21.5 -2.5t18 -12t16 -16t14.5 -14.5
q16 -16 20 -32.5t9 -39.5q3 -16 -1.5 -35.5t-14.5 -38.5t-23 -37t-26 -31q-14 -14 -29.5 -29t-26.5 -30q-10 -14 -6 -33t18 -26q7 -3 16 -1.5t18 5.5t18.5 8t17.5 5q38 5 74.5 4t63.5 -25zM253 211q-9 2 -17.5 -4.5t-14.5 -16t-9.5 -20t-3.5 -16.5q1 -19 12.5 -32.5
t31.5 -18.5q7 -2 17 -2t18.5 3t14 9.5t4.5 15.5q-1 10 -9 20t-12 19q-5 11 -11.5 25.5t-20.5 17.5zM221 562q-25 -30 -28.5 -59.5t0.5 -61.5q1 -8 3 -21t7 -23.5t13.5 -15t22.5 4.5t24.5 22t21.5 26q18 22 25 49t5 52q-1 21 -8.5 37t-20 22t-29.5 -1t-36 -31zM335 16
q20 10 18.5 27t-12.5 29q-6 7 -15 8t-18.5 -0.5t-20 -4.5t-19.5 -5q-46 -13 -75 1.5t-31 56.5q-1 17 4.5 34.5t13.5 33.5q5 8 10 15.5t12 13.5q6 5 11.5 14t7.5 16q3 11 -7 18t-20 8q-12 1 -22 -5t-18.5 -15.5t-16 -20t-14.5 -17.5q-13 -16 -23.5 -37.5t-15.5 -39.5
q-6 -22 -6.5 -37t7.5 -32q13 -29 38.5 -52t59.5 -31q19 -5 38 -3t39 4q17 2 37.5 7.5t37.5 13.5zM449 103q20 28 19 60.5t-18 57t-46.5 35t-66.5 -4.5q-16 -6 -23 -14t-2 -23q5 -13 11.5 -27t12.5 -26q6 -11 14.5 -13t22.5 6q7 4 13.5 11.5t16.5 5.5q7 -2 8.5 -7t-2.5 -11
q-5 -10 -14.5 -14t-14.5 -12t-0.5 -16.5t7.5 -14.5q3 -5 6 -15.5t7 -13.5q6 -4 13.5 -0.5t14 10t12.5 14t9 12.5z" />
    <glyph glyph-name="copyright" unicode="&#xa9;" horiz-adv-x="575" 
d="M474 285q19 -17 34 -39.5t17 -48.5q0 -12 -3.5 -27t-10.5 -30t-15 -29t-17 -24q-13 -15 -29 -33t-30 -32q-7 -7 -9.5 -12.5t-2.5 -11t1.5 -12t2.5 -14.5v-17.5t-2 -17.5q-3 -17 -14 -36t-26.5 -36.5t-33.5 -32.5t-34 -23q-13 -7 -32.5 -13t-40.5 -9t-41 -1t-32 12
q-17 13 -19.5 30.5t5 33t24 26.5t39.5 12q8 0 18 -2t17 -6.5t8.5 -12t-5.5 -17.5q-3 -4 -7.5 -7t-7.5 -6t-3.5 -7t4.5 -9q5 -6 16 -5.5t19 2.5q20 4 37.5 16t31 28.5t22.5 35t12 35.5q1 7 2 14.5t-1 13t-8 8t-17 -0.5q-18 -5 -38 -12t-39 -12q-44 -14 -89 -14.5t-80 22.5
q-16 10 -29.5 26.5t-23 35t-13.5 39t-1 40.5q3 19 9 36t14 36q11 25 28.5 49.5t37.5 44.5q11 11 18.5 23.5t20.5 35.5q8 14 2.5 26t-10.5 26q-6 20 -11 38t-7 36.5t0.5 38t12.5 41.5q9 19 20 36t25 34q15 21 37.5 38.5t48.5 21.5q12 2 21.5 -2.5t18 -12t16 -16t14.5 -14.5
q16 -16 20 -32.5t9 -39.5q3 -16 -1.5 -35.5t-14.5 -38.5t-23 -37t-26 -31q-14 -14 -29.5 -29t-26.5 -30q-10 -14 -6 -33t18 -26q7 -3 16 -1.5t18 5.5t18.5 8t17.5 5q38 5 74.5 4t63.5 -25zM253 211q-9 2 -17.5 -4.5t-14.5 -16t-9.5 -20t-3.5 -16.5q1 -19 12.5 -32.5
t31.5 -18.5q7 -2 17 -2t18.5 3t14 9.5t4.5 15.5q-1 10 -9 20t-12 19q-5 11 -11.5 25.5t-20.5 17.5zM221 562q-25 -30 -28.5 -59.5t0.5 -61.5q1 -8 3 -21t7 -23.5t13.5 -15t22.5 4.5t24.5 22t21.5 26q18 22 25 49t5 52q-1 21 -8.5 37t-20 22t-29.5 -1t-36 -31zM335 16
q20 10 18.5 27t-12.5 29q-6 7 -15 8t-18.5 -0.5t-20 -4.5t-19.5 -5q-46 -13 -75 1.5t-31 56.5q-1 17 4.5 34.5t13.5 33.5q5 8 10 15.5t12 13.5q6 5 11.5 14t7.5 16q3 11 -7 18t-20 8q-12 1 -22 -5t-18.5 -15.5t-16 -20t-14.5 -17.5q-13 -16 -23.5 -37.5t-15.5 -39.5
q-6 -22 -6.5 -37t7.5 -32q13 -29 38.5 -52t59.5 -31q19 -5 38 -3t39 4q17 2 37.5 7.5t37.5 13.5zM449 103q20 28 19 60.5t-18 57t-46.5 35t-66.5 -4.5q-16 -6 -23 -14t-2 -23q5 -13 11.5 -27t12.5 -26q6 -11 14.5 -13t22.5 6q7 4 13.5 11.5t16.5 5.5q7 -2 8.5 -7t-2.5 -11
q-5 -10 -14.5 -14t-14.5 -12t-0.5 -16.5t7.5 -14.5q3 -5 6 -15.5t7 -13.5q6 -4 13.5 -0.5t14 10t12.5 14t9 12.5z" />
    <glyph glyph-name="trademark" unicode="&#x2122;" horiz-adv-x="562" 
d="M474 285q19 -17 34 -39.5t17 -48.5q0 -12 -3.5 -27t-10.5 -30t-15 -29t-17 -24q-13 -15 -29 -33t-30 -32q-7 -7 -9.5 -12.5t-2.5 -11t1.5 -12t2.5 -14.5v-17.5t-2 -17.5q-3 -17 -14 -36t-26.5 -36.5t-33.5 -32.5t-34 -23q-13 -7 -32.5 -13t-40.5 -9t-41 -1t-32 12
q-17 13 -19.5 30.5t5 33t24 26.5t39.5 12q8 0 18 -2t17 -6.5t8.5 -12t-5.5 -17.5q-3 -4 -7.5 -7t-7.5 -6t-3.5 -7t4.5 -9q5 -6 16 -5.5t19 2.5q20 4 37.5 16t31 28.5t22.5 35t12 35.5q1 7 2 14.5t-1 13t-8 8t-17 -0.5q-18 -5 -38 -12t-39 -12q-44 -14 -89 -14.5t-80 22.5
q-16 10 -29.5 26.5t-23 35t-13.5 39t-1 40.5q3 19 9 36t14 36q11 25 28.5 49.5t37.5 44.5q11 11 18.5 23.5t20.5 35.5q8 14 2.5 26t-10.5 26q-6 20 -11 38t-7 36.5t0.5 38t12.5 41.5q9 19 20 36t25 34q15 21 37.5 38.5t48.5 21.5q12 2 21.5 -2.5t18 -12t16 -16t14.5 -14.5
q16 -16 20 -32.5t9 -39.5q3 -16 -1.5 -35.5t-14.5 -38.5t-23 -37t-26 -31q-14 -14 -29.5 -29t-26.5 -30q-10 -14 -6 -33t18 -26q7 -3 16 -1.5t18 5.5t18.5 8t17.5 5q38 5 74.5 4t63.5 -25zM253 211q-9 2 -17.5 -4.5t-14.5 -16t-9.5 -20t-3.5 -16.5q1 -19 12.5 -32.5
t31.5 -18.5q7 -2 17 -2t18.5 3t14 9.5t4.5 15.5q-1 10 -9 20t-12 19q-5 11 -11.5 25.5t-20.5 17.5zM221 562q-25 -30 -28.5 -59.5t0.5 -61.5q1 -8 3 -21t7 -23.5t13.5 -15t22.5 4.5t24.5 22t21.5 26q18 22 25 49t5 52q-1 21 -8.5 37t-20 22t-29.5 -1t-36 -31zM335 16
q20 10 18.5 27t-12.5 29q-6 7 -15 8t-18.5 -0.5t-20 -4.5t-19.5 -5q-46 -13 -75 1.5t-31 56.5q-1 17 4.5 34.5t13.5 33.5q5 8 10 15.5t12 13.5q6 5 11.5 14t7.5 16q3 11 -7 18t-20 8q-12 1 -22 -5t-18.5 -15.5t-16 -20t-14.5 -17.5q-13 -16 -23.5 -37.5t-15.5 -39.5
q-6 -22 -6.5 -37t7.5 -32q13 -29 38.5 -52t59.5 -31q19 -5 38 -3t39 4q17 2 37.5 7.5t37.5 13.5zM449 103q20 28 19 60.5t-18 57t-46.5 35t-66.5 -4.5q-16 -6 -23 -14t-2 -23q5 -13 11.5 -27t12.5 -26q6 -11 14.5 -13t22.5 6q7 4 13.5 11.5t16.5 5.5q7 -2 8.5 -7t-2.5 -11
q-5 -10 -14.5 -14t-14.5 -12t-0.5 -16.5t7.5 -14.5q3 -5 6 -15.5t7 -13.5q6 -4 13.5 -0.5t14 10t12.5 14t9 12.5z" />
    <glyph glyph-name="A" unicode="A" horiz-adv-x="543" 
d="M474 285q19 -17 34 -39.5t17 -48.5q0 -12 -3.5 -27t-10.5 -30t-15 -29t-17 -24q-13 -15 -29 -33t-30 -32q-7 -7 -9.5 -12.5t-2.5 -11t1.5 -12t2.5 -14.5v-17.5t-2 -17.5q-3 -17 -14 -36t-26.5 -36.5t-33.5 -32.5t-34 -23q-13 -7 -32.5 -13t-40.5 -9t-41 -1t-32 12
q-17 13 -19.5 30.5t5 33t24 26.5t39.5 12q8 0 18 -2t17 -6.5t8.5 -12t-5.5 -17.5q-3 -4 -7.5 -7t-7.5 -6t-3.5 -7t4.5 -9q5 -6 16 -5.5t19 2.5q20 4 37.5 16t31 28.5t22.5 35t12 35.5q1 7 2 14.5t-1 13t-8 8t-17 -0.5q-18 -5 -38 -12t-39 -12q-44 -14 -89 -14.5t-80 22.5
q-16 10 -29.5 26.5t-23 35t-13.5 39t-1 40.5q3 19 9 36t14 36q11 25 28.5 49.5t37.5 44.5q11 11 18.5 23.5t20.5 35.5q8 14 2.5 26t-10.5 26q-6 20 -11 38t-7 36.5t0.5 38t12.5 41.5q9 19 20 36t25 34q15 21 37.5 38.5t48.5 21.5q12 2 21.5 -2.5t18 -12t16 -16t14.5 -14.5
q16 -16 20 -32.5t9 -39.5q3 -16 -1.5 -35.5t-14.5 -38.5t-23 -37t-26 -31q-14 -14 -29.5 -29t-26.5 -30q-10 -14 -6 -33t18 -26q7 -3 16 -1.5t18 5.5t18.5 8t17.5 5q38 5 74.5 4t63.5 -25zM253 211q-9 2 -17.5 -4.5t-14.5 -16t-9.5 -20t-3.5 -16.5q1 -19 12.5 -32.5
t31.5 -18.5q7 -2 17 -2t18.5 3t14 9.5t4.5 15.5q-1 10 -9 20t-12 19q-5 11 -11.5 25.5t-20.5 17.5zM221 562q-25 -30 -28.5 -59.5t0.5 -61.5q1 -8 3 -21t7 -23.5t13.5 -15t22.5 4.5t24.5 22t21.5 26q18 22 25 49t5 52q-1 21 -8.5 37t-20 22t-29.5 -1t-36 -31zM335 16
q20 10 18.5 27t-12.5 29q-6 7 -15 8t-18.5 -0.5t-20 -4.5t-19.5 -5q-46 -13 -75 1.5t-31 56.5q-1 17 4.5 34.5t13.5 33.5q5 8 10 15.5t12 13.5q6 5 11.5 14t7.5 16q3 11 -7 18t-20 8q-12 1 -22 -5t-18.5 -15.5t-16 -20t-14.5 -17.5q-13 -16 -23.5 -37.5t-15.5 -39.5
q-6 -22 -6.5 -37t7.5 -32q13 -29 38.5 -52t59.5 -31q19 -5 38 -3t39 4q17 2 37.5 7.5t37.5 13.5zM449 103q20 28 19 60.5t-18 57t-46.5 35t-66.5 -4.5q-16 -6 -23 -14t-2 -23q5 -13 11.5 -27t12.5 -26q6 -11 14.5 -13t22.5 6q7 4 13.5 11.5t16.5 5.5q7 -2 8.5 -7t-2.5 -11
q-5 -10 -14.5 -14t-14.5 -12t-0.5 -16.5t7.5 -14.5q3 -5 6 -15.5t7 -13.5q6 -4 13.5 -0.5t14 10t12.5 14t9 12.5z" />
    <glyph glyph-name="a" unicode="a" horiz-adv-x="543" 
d="M474 285q19 -17 34 -39.5t17 -48.5q0 -12 -3.5 -27t-10.5 -30t-15 -29t-17 -24q-13 -15 -29 -33t-30 -32q-7 -7 -9.5 -12.5t-2.5 -11t1.5 -12t2.5 -14.5v-17.5t-2 -17.5q-3 -17 -14 -36t-26.5 -36.5t-33.5 -32.5t-34 -23q-13 -7 -32.5 -13t-40.5 -9t-41 -1t-32 12
q-17 13 -19.5 30.5t5 33t24 26.5t39.5 12q8 0 18 -2t17 -6.5t8.5 -12t-5.5 -17.5q-3 -4 -7.5 -7t-7.5 -6t-3.5 -7t4.5 -9q5 -6 16 -5.5t19 2.5q20 4 37.5 16t31 28.5t22.5 35t12 35.5q1 7 2 14.5t-1 13t-8 8t-17 -0.5q-18 -5 -38 -12t-39 -12q-44 -14 -89 -14.5t-80 22.5
q-16 10 -29.5 26.5t-23 35t-13.5 39t-1 40.5q3 19 9 36t14 36q11 25 28.5 49.5t37.5 44.5q11 11 18.5 23.5t20.5 35.5q8 14 2.5 26t-10.5 26q-6 20 -11 38t-7 36.5t0.5 38t12.5 41.5q9 19 20 36t25 34q15 21 37.5 38.5t48.5 21.5q12 2 21.5 -2.5t18 -12t16 -16t14.5 -14.5
q16 -16 20 -32.5t9 -39.5q3 -16 -1.5 -35.5t-14.5 -38.5t-23 -37t-26 -31q-14 -14 -29.5 -29t-26.5 -30q-10 -14 -6 -33t18 -26q7 -3 16 -1.5t18 5.5t18.5 8t17.5 5q38 5 74.5 4t63.5 -25zM253 211q-9 2 -17.5 -4.5t-14.5 -16t-9.5 -20t-3.5 -16.5q1 -19 12.5 -32.5
t31.5 -18.5q7 -2 17 -2t18.5 3t14 9.5t4.5 15.5q-1 10 -9 20t-12 19q-5 11 -11.5 25.5t-20.5 17.5zM221 562q-25 -30 -28.5 -59.5t0.5 -61.5q1 -8 3 -21t7 -23.5t13.5 -15t22.5 4.5t24.5 22t21.5 26q18 22 25 49t5 52q-1 21 -8.5 37t-20 22t-29.5 -1t-36 -31zM335 16
q20 10 18.5 27t-12.5 29q-6 7 -15 8t-18.5 -0.5t-20 -4.5t-19.5 -5q-46 -13 -75 1.5t-31 56.5q-1 17 4.5 34.5t13.5 33.5q5 8 10 15.5t12 13.5q6 5 11.5 14t7.5 16q3 11 -7 18t-20 8q-12 1 -22 -5t-18.5 -15.5t-16 -20t-14.5 -17.5q-13 -16 -23.5 -37.5t-15.5 -39.5
q-6 -22 -6.5 -37t7.5 -32q13 -29 38.5 -52t59.5 -31q19 -5 38 -3t39 4q17 2 37.5 7.5t37.5 13.5zM449 103q20 28 19 60.5t-18 57t-46.5 35t-66.5 -4.5q-16 -6 -23 -14t-2 -23q5 -13 11.5 -27t12.5 -26q6 -11 14.5 -13t22.5 6q7 4 13.5 11.5t16.5 5.5q7 -2 8.5 -7t-2.5 -11
q-5 -10 -14.5 -14t-14.5 -12t-0.5 -16.5t7.5 -14.5q3 -5 6 -15.5t7 -13.5q6 -4 13.5 -0.5t14 10t12.5 14t9 12.5z" />
    <glyph glyph-name="b" unicode="b" horiz-adv-x="397" 
d="M359 324q3 -17 4.5 -34t0.5 -35q0 -14 -2 -27.5t-9 -26.5q-7 -12 -14.5 -20.5t-20.5 -13.5q-11 -5 -26 -5.5t-26 6.5q-10 7 -16 17.5t-7 22t2 23t11 20.5q8 10 20 13.5t24 2.5q13 -1 15.5 4.5t4.5 16.5q1 8 1.5 18t-5.5 16q-6 7 -16 9t-19 2q-30 -2 -57.5 -13.5
t-55.5 -21.5q-8 -2 -18 -6.5t-15 -11.5q-7 -8 -6 -17t4 -18q4 -12 5 -24.5t5 -24.5q3 -9 6 -19t2 -20q-1 -14 -11 -25t-24.5 -17t-29.5 -7.5t-27 3.5q-30 13 -34 45q-1 12 1.5 22.5t11.5 19.5q13 11 28 11q4 0 7.5 -1t7.5 -1q12 1 16.5 11.5t4.5 24t-2.5 26.5t-2.5 21
q-1 8 -1.5 14t-2.5 13q-4 16 -6.5 31.5t-7.5 30.5q-3 9 -7.5 17.5t-7.5 17.5t-3 18t6 18q8 11 20.5 13t23.5 4q36 8 72 20q20 8 40.5 16t41.5 15q10 3 21 7.5t22 5.5q13 1 20 -5.5t9.5 -17t3 -22.5t0.5 -21q1 -17 1.5 -33.5t2.5 -33.5q2 -19 7 -37t7 -37zM284 407
q12 4 15 7.5t2 11.5q-1 4 -0.5 11t-3.5 10q-5 3 -18 -1t-20 -6l-34 -10t-35 -9q-8 -2 -16.5 -5t-17.5 -6q-8 -2 -17.5 -4t-17.5 -6q-10 -5 -7 -9.5t5 -9.5q3 -4 4.5 -11t7.5 -10q5 -2 10.5 -0.5t10.5 3.5q9 4 17.5 7.5t18.5 5.5q24 8 48 15.5t48 15.5z" />
  </font>
</defs>
</svg>
